<svg xmlns="http://www.w3.org/2000/svg" width="566.4" height="389.435" viewBox="0 0 566.4 389.435"><defs><style>.a{fill:#e0e0e0;}.b,.o{fill:#fafafa;}.c{fill:#ebebeb;}.d{fill:#f5f5f5;}.e{fill:#fff;}.f{fill:#455a64;}.g,.i,.l,.n{fill:#263238;}.h,.j{fill:#f24a46;}.h,.i{fill-rule:evenodd;}.k{fill:none;}.l{font-size:5px;}.l,.n{font-family:Montserrat-Bold, Montserrat;font-weight:700;}.m,.o{font-family:Montserrat-Regular, Montserrat;}.m{font-weight:400;}.n{font-size:4px;}.o{font-size:3px;}.p,.u{opacity:0.3;}.p,.q{isolation:isolate;}.q,.w{opacity:0.4;}.r{opacity:0.6;}.s{fill:#ffbe9d;}.t{fill:#eb996e;}.v{opacity:0.5;}</style></defs><g transform="translate(-127.259 -117.229)"><g transform="translate(134.338 181.858)"><rect class="a" width="65.529" height="68.303" transform="translate(4.454 0.017)"></rect><rect class="b" width="65.529" height="68.303" transform="translate(0.018 0.017)"></rect><path class="a" d="M200.913,259.428H135.349V191.09h65.564Zm-65.529,0h65.485v-68.25H135.384Z" transform="translate(-135.349 -191.09)"></path><rect class="b" width="47.907" height="49.945" transform="translate(8.829 9.196)"></rect><path class="a" d="M144.189,259.06a7.982,7.982,0,0,1-1.19,1.374c-.761.8-1.838,1.9-3.045,3.089s-2.336,2.249-3.124,2.992a7.463,7.463,0,0,1-1.391,1.155,7.975,7.975,0,0,1,1.181-1.374c.761-.8,1.838-1.9,3.054-3.089s2.319-2.249,3.132-3A7.032,7.032,0,0,1,144.189,259.06Z" transform="translate(-135.36 -199.586)"></path><path class="a" d="M200.189,258.92a7.17,7.17,0,0,1,1.374,1.181c.805.761,1.9,1.838,3.089,3.045s2.24,2.31,2.993,3.133a7.284,7.284,0,0,1,1.155,1.383,7.382,7.382,0,0,1-1.365-1.181c-.814-.761-1.908-1.838-3.1-3.045s-2.249-2.319-3-3.141A7.5,7.5,0,0,1,200.189,258.92Z" transform="translate(-143.454 -199.568)"></path><path class="a" d="M200.039,200.5a8.544,8.544,0,0,1,1.181-1.374c.761-.805,1.837-1.9,3.045-3.08s2.31-2.249,3.133-3a7.762,7.762,0,0,1,1.383-1.155,7.675,7.675,0,0,1-1.173,1.374c-.77.805-1.846,1.9-3.054,3.089s-2.319,2.258-3.141,3A6.986,6.986,0,0,1,200.039,200.5Z" transform="translate(-143.435 -191.19)"></path><path class="a" d="M144.058,200.641a7.1,7.1,0,0,1-1.383-1.181c-.805-.761-1.9-1.837-3.08-3.045s-2.249-2.31-3-3.124a8.039,8.039,0,0,1-1.155-1.391,7.626,7.626,0,0,1,1.374,1.181c.805.761,1.9,1.838,3.089,3.054s2.258,2.319,3,3.133A7.78,7.78,0,0,1,144.058,200.641Z" transform="translate(-135.36 -191.191)"></path><path class="a" d="M193.188,251.565a1.147,1.147,0,0,1,0-.245V237.749c0-8.75-.061-21.21-.1-36.129l.184.184H145.5l.21-.21v49.945l-.175-.184,34.589.1,9.721.044h.07l-9.678.044-34.7.1h-.306V201.41h48.178v.184c0,14.971-.07,27.475-.1,36.252v13.431A2.084,2.084,0,0,1,193.188,251.565Z" transform="translate(-136.584 -192.38)"></path><rect class="c" width="15.986" height="15.986" transform="translate(24.789 26.171)"></rect><path class="d" d="M317.679,469.3v22.12h68.04V469.3Z" transform="translate(-158.139 -225.865)"></path><path class="a" d="M314.409,462.23v6.186h73.282V462.23H314.409Z" transform="translate(-157.731 -224.981)"></path><path class="a" d="M356.076,490.536h34.265v-22.12h2.38V462.23H354.649v5.609Z" transform="translate(-162.76 -224.981)"></path><rect class="a" width="13.799" height="3.334" transform="translate(169.051 246.996)"></rect><rect class="e" width="17.719" height="7.035" transform="translate(167.275 254.495)"></rect><path class="d" d="M283.3,505.37v33.749H387.1V505.37Z" transform="translate(-153.842 -230.373)"></path><path class="a" d="M278.319,494.58v9.441H390.11V494.58H278.319Z" transform="translate(-153.219 -229.024)"></path><path class="a" d="M341.888,537.77h52.264V504.021h3.631V494.58H339.709v8.566Z" transform="translate(-160.893 -229.024)"></path><rect class="a" width="21.053" height="5.084" transform="translate(143.974 280.439)"></rect><rect class="e" width="27.029" height="10.728" transform="translate(141.27 291.867)"></rect><rect class="d" width="151.367" height="69.808" transform="translate(370.968 195.091)"></rect><path class="a" d="M707.575,481.1H563.269V418.25H707.575Zm-143.361-.945H706.639V419.2H564.214Z" transform="translate(-188.836 -219.484)"></path><rect class="a" width="36.978" height="69.808" transform="translate(522.344 195.091)"></rect><path class="a" d="M563.782,440.425H707.143a.192.192,0,1,0,0-.385H563.782a.192.192,0,1,0,0,.385Z" transform="translate(-188.877 -222.207)"></path><path class="a" d="M646.177,437.524a155.808,155.808,0,0,0,0-18.961.192.192,0,1,0-.385,0,157.567,157.567,0,0,0,.052,18.961.149.149,0,0,0,.289,0Z" transform="translate(-199.119 -219.499)"></path><path class="a" d="M689.809,429.15a1.96,1.96,0,1,1-1.96-1.96h.009a1.951,1.951,0,0,1,1.951,1.951Z" transform="translate(-204.163 -220.601)"></path><path class="a" d="M603.822,429.15a1.956,1.956,0,1,1,0-.009Z" transform="translate(-193.418 -220.601)"></path><path class="a" d="M647.372,453.881a1.951,1.951,0,1,1-1.951-1.951h0a1.942,1.942,0,0,1,1.951,1.934Z" transform="translate(-198.861 -223.693)"></path><path class="a" d="M578.886,493.84l-7.8,43.82h4.384l14.368-43.82Z" transform="translate(-189.814 -228.932)"></path><path class="a" d="M718.5,493.84l6.519,43.9H720.64l-13.09-43.9Z" transform="translate(-206.871 -228.932)"></path><path class="a" d="M751.945,493.84l7.385,43.9h-4.384l-13.956-43.9Z" transform="translate(-211.051 -228.932)"></path><path class="a" d="M647.252,476.451A1.951,1.951,0,1,1,645.3,474.5h0a1.942,1.942,0,0,1,1.951,1.934Z" transform="translate(-198.846 -226.515)"></path><path class="a" d="M563.787,465.126H707.148a.192.192,0,0,0,0-.376H563.787a.193.193,0,0,0,0,.376Z" transform="translate(-188.882 -225.296)"></path><rect class="a" width="45.772" height="9.319" transform="translate(487.077 162.318) rotate(-0.3)"></rect><rect class="d" width="51.013" height="14.473" transform="translate(487.306 180.677) rotate(-0.3)"></rect><path class="a" d="M739.41,411.661a107.119,107.119,0,0,1,0-14.481,103.393,103.393,0,0,1,0,14.481Z" transform="translate(-210.819 -216.85)"></path><path class="a" d="M741.89,411.661a107.093,107.093,0,0,1,0-14.481,103.443,103.443,0,0,1,0,14.481Z" transform="translate(-211.129 -216.85)"></path><path class="a" d="M701.12,411.661a107.119,107.119,0,0,1,0-14.481,107.119,107.119,0,0,1,0,14.481Z" transform="translate(-206.032 -216.85)"></path><path class="a" d="M703.57,411.661a107.119,107.119,0,0,1,0-14.481,107.146,107.146,0,0,1,0,14.481Z" transform="translate(-206.339 -216.85)"></path><path class="a" d="M708.929,405.694c0-.14,5.145-.254,11.5-.254s11.489.114,11.489.254-5.145.254-11.489.254S708.929,405.816,708.929,405.694Z" transform="translate(-207.043 -217.883)"></path><rect class="c" width="62.948" height="9.319" transform="translate(494.555 171.344) rotate(-0.3)"></rect><path class="a" d="M761.842,395.008a3.019,3.019,0,1,1,2.975-3.062V392a2.992,2.992,0,0,1-2.975,3.01Z" transform="translate(-213.274 -215.824)"></path><rect class="a" width="42.132" height="1.864" transform="translate(498.255 175.246)"></rect></g><g transform="translate(197.837 117.229)"><rect class="b" width="408.54" height="288.218" rx="8.69" transform="translate(0.166 0.376)"></rect><rect class="f" width="37.94" height="288.148" rx="9.65" transform="translate(0 0.665)"></rect><path class="g" d="M616.63,147.835l.193-.114a1.6,1.6,0,0,0,.472-.437,3.853,3.853,0,0,0,.648-2.258,7.131,7.131,0,0,1,.305-1.7,2.345,2.345,0,0,1,1.34-1.523,2.389,2.389,0,0,1,2.24.289,3.4,3.4,0,0,1,1.059,2.153,9.244,9.244,0,0,1,.1,1.076,2.38,2.38,0,0,0,.114.927,3.543,3.543,0,0,0,1.094,1.426l.429.359h-.551c-2.24,0-4.174-.1-5.46-.14l-1.977-.061,2.2-.053c1.339,0,3.124-.14,5.25-.14l-.114.35a3.828,3.828,0,0,1-1.243-1.593,2.682,2.682,0,0,1-.149-1.068,8.046,8.046,0,0,0-.1-1.015,3.057,3.057,0,0,0-.875-1.9,1.907,1.907,0,0,0-2.993,1.033,7.466,7.466,0,0,0-.35,1.61,5.418,5.418,0,0,1-.262,1.391,2.708,2.708,0,0,1-.551.936,1.46,1.46,0,0,1-.551.4.283.283,0,0,1-.166,0Z" transform="translate(-259.006 -120.282)"></path><path class="h" d="M621.45,142.83a1.6,1.6,0,1,0,1.6-1.6,1.6,1.6,0,0,0-1.6,1.6Z" transform="translate(-259.609 -120.229)"></path><path class="i" d="M619.734,149.879h2.2A1.085,1.085,0,0,1,620.887,151a.916.916,0,0,1-.155-.005.875.875,0,0,1-1-1.12Z" transform="translate(-259.389 -121.31)"></path><rect class="f" width="16.923" height="16.923" rx="4.51" transform="translate(373.846 17.229)"></rect><path class="b" d="M234.209,187.565a.309.309,0,0,1-.21-.079l-5.4-4.926-5.434,4.926a.314.314,0,0,1-.429,0,.305.305,0,0,1,0-.429l5.644-5.11a.306.306,0,0,1,.411,0l5.644,5.11a.307.307,0,0,1,0,.429A.286.286,0,0,1,234.209,187.565Z" transform="translate(-209.761 -125.309)"></path><path class="b" d="M232.876,192.4h-8.2a.3.3,0,0,1-.3-.3V186.4a.3.3,0,1,1,.6,0h0v5.4h7.586v-5.4a.306.306,0,0,1,.306-.306h0a.307.307,0,0,1,.3.306v5.74A.3.3,0,0,1,232.876,192.4Z" transform="translate(-209.977 -125.836)"></path><path class="b" d="M233.94,236.514H223.256a.305.305,0,0,1-.306-.306h0V229.4a1.531,1.531,0,0,1,1.531-1.531h2.783a1.752,1.752,0,0,1,1.593,1.059l.481,1.138h3.369a1.532,1.532,0,0,1,1.531,1.531v4.611a.3.3,0,0,1-.289.306Zm-10.378-.6h10.071V231.6a.928.928,0,0,0-.928-.928h-3.579a.3.3,0,0,1-.271-.184l-.56-1.33a1.122,1.122,0,0,0-1.033-.682H224.49a.919.919,0,0,0-.928.91v6.528Z" transform="translate(-209.798 -131.059)"></path><rect class="b" width="37.599" height="31.491" rx="3.18" transform="translate(5.04 124.968)"></rect><path class="f" d="M225.568,282.708a.784.784,0,0,1-.473-.158.8.8,0,0,1-.324-.779l.446-2.835a.213.213,0,0,0-.052-.175l-2.03-2.039a.777.777,0,0,1-.2-.814.8.8,0,0,1,.639-.551l2.844-.455a.228.228,0,0,0,.149-.1l1.3-2.564a.875.875,0,0,1,1.444,0l1.3,2.564a.208.208,0,0,0,.149.1l2.835.455a.8.8,0,0,1,.648.542.815.815,0,0,1-.2.823l-2.03,2.039a.2.2,0,0,0-.053.175l.446,2.835a.806.806,0,0,1-.324.779.788.788,0,0,1-.875.07l-2.564-1.3a.231.231,0,0,0-.184,0l-2.564,1.3A.764.764,0,0,1,225.568,282.708Zm3.063-1.978a.893.893,0,0,1,.368.087l2.564,1.3a.184.184,0,0,0,.21,0,.194.194,0,0,0,.079-.193l-.446-2.835a.82.82,0,0,1,.228-.7l2.03-2.039a.2.2,0,0,0,.053-.2.22.22,0,0,0-.166-.14l-2.835-.446a.821.821,0,0,1-.6-.438l-1.3-2.555h0a.2.2,0,0,0-.359,0l-1.313,2.555a.8.8,0,0,1-.586.438l-2.844.446a.2.2,0,0,0-.162.234.2.2,0,0,0,.057.107l2.03,2.039a.816.816,0,0,1,.227.691l-.446,2.844a.174.174,0,0,0,.079.193.184.184,0,0,0,.21,0l2.564-1.3A.878.878,0,0,1,228.63,280.731Z" transform="translate(-209.791 -136.556)"></path><path class="b" d="M234.454,326.83h-12a.305.305,0,0,1-.3-.306v-7.569a.307.307,0,0,1,.3-.306h12a.307.307,0,0,1,.306.306h0v7.56a.307.307,0,0,1-.3.315Zm-11.69-.6h11.375V319.27H222.764Z" transform="translate(-209.7 -142.406)"></path><path class="b" d="M228.614,324.658a.277.277,0,0,1-.2-.079l-6.125-5.434a.314.314,0,0,1,0-.429.307.307,0,0,1,.429,0l5.941,5.25,5.653-5.25a.306.306,0,0,1,.411.446l-5.854,5.443A.289.289,0,0,1,228.614,324.658Z" transform="translate(-209.705 -142.403)"></path><path class="b" d="M222.657,326.961a.268.268,0,0,1-.21-.087.3.3,0,0,1-.009-.42l.009-.009L226.1,322.8a.3.3,0,0,1,.42-.008l.009.008a.316.316,0,0,1,0,.429l-3.649,3.649A.3.3,0,0,1,222.657,326.961Z" transform="translate(-209.724 -142.913)"></path><path class="b" d="M235.7,327.215a.3.3,0,0,1-.21-.088l-3.9-3.9a.314.314,0,0,1,0-.429.3.3,0,0,1,.42-.008l.009.008,3.9,3.9a.316.316,0,0,1,0,.429A.3.3,0,0,1,235.7,327.215Z" transform="translate(-210.867 -142.913)"></path><path class="j" d="M362.292,153.49c6.239-4.909,11.743-10.894,18.909-14.289,12.25-5.845,26.8-2.879,39.918.735s26.976,7.805,40.075,4.086c12.128-3.439,21.788-14.105,24.5-26.364H260.45c3,24.894,21.77,45.43,46.717,49.744l1.566.254A71.023,71.023,0,0,0,362.292,153.49Z" transform="translate(-214.486 -117.283)"></path><path class="j" d="M550.616,140.75c6.344,5.758,15.593,7.324,24.1,6.344,5.722-.665,11.541-2.494,15.68-6.5a20.126,20.126,0,0,0,5.355-18.016,21.88,21.88,0,0,0-1.619-4.918H547.239C542.05,124.44,544.29,135.01,550.616,140.75Z" transform="translate(-249.972 -117.283)"></path><g transform="translate(45.964 0.376)"><path class="a" d="M362.292,153.49c6.239-4.909,11.743-10.894,18.909-14.289,12.25-5.845,26.8-2.879,39.918.735s26.976,7.805,40.075,4.086c12.128-3.439,21.788-14.105,24.5-26.364H260.45c3,24.894,21.77,45.43,46.717,49.744l1.566.254A71.023,71.023,0,0,0,362.292,153.49Z" transform="translate(-260.45 -117.659)"></path><path class="a" d="M550.616,140.75c6.344,5.758,15.593,7.324,24.1,6.344,5.722-.665,11.541-2.494,15.68-6.5a20.126,20.126,0,0,0,5.355-18.016,21.88,21.88,0,0,0-1.619-4.918H547.239C542.05,124.44,544.29,135.01,550.616,140.75Z" transform="translate(-295.937 -117.659)"></path></g><path class="k" d="M604.36,142.772a3.431,3.431,0,0,1,.875.219l.612-.516,1.059.805-.332.735a3.149,3.149,0,0,1,.438.744l.8.07.184,1.321-.753.28a3.361,3.361,0,0,1-.227.875l.516.621-.805,1.05-.726-.333a3.388,3.388,0,0,1-.753.438l-.07.8-1.312.175-.28-.753a3.351,3.351,0,0,1-.875-.219l-.612.516-1.059-.8.332-.735a3.31,3.31,0,0,1-.437-.744l-.8-.07-.184-1.321.753-.28a2.981,2.981,0,0,1,.227-.875l-.516-.621.805-1.059.726.333A3.351,3.351,0,0,1,602.7,143l.07-.805,1.313-.175Zm-.394,1.855a1.423,1.423,0,1,0,1.435,1.094A1.427,1.427,0,0,0,603.966,144.627Z" transform="translate(-256.921 -120.328)"></path><path class="g" d="M604.314,144.995a.5.5,0,0,1,.367,0,1.439,1.439,0,0,1,.875.481,1.56,1.56,0,0,1,.315,1.487,1.61,1.61,0,0,1-3.036.105,1.547,1.547,0,0,1,.219-1.514,1.38,1.38,0,0,1,.875-.534.8.8,0,0,1,.367,0,1.5,1.5,0,0,0-.989.691,1.275,1.275,0,0,0-.1,1.19,1.234,1.234,0,0,0,2.31-.07,1.3,1.3,0,0,0-.184-1.19A2.03,2.03,0,0,0,604.314,144.995Z" transform="translate(-257.268 -120.696)"></path><path class="g" d="M604.35,142.764a4.173,4.173,0,0,1-.341-.726h.07l-1.313.219.1-.1-.053.8v.07h-.07a3.174,3.174,0,0,0-.709.429l-.061.052h-.079l-.744-.324h.184l-.788,1.067v-.21l.525.612.07.079-.044.1a3.1,3.1,0,0,0-.2.8v.1h-.105l-.752.28.122-.2c.053.42.122.875.184,1.321l-.175-.175.8.07h.123l.044.114a3.517,3.517,0,0,0,.411.7l.079.1-.053.114-.333.735-.061-.254,1.059.805h-.262c.2-.158.411-.333.621-.516l.1-.079.114.053a3.13,3.13,0,0,0,.787.2h0l.166.14h0v.1l.07.192.14.376-.219-.14,1.313-.175-.176.184a3.033,3.033,0,0,1,.071-.8v-.123l.114-.052a3.14,3.14,0,0,0,.709-.4l.1-.079.115.053.726.341-.246.052.814-1.05v.245l-.508-.621-.079-.087.044-.105a2.827,2.827,0,0,0,.219-.788v-.114h.1l.753-.271-.1.184c-.061-.464-.114-.875-.166-1.313l.14.131-.8-.079h-.088v-.079a3.15,3.15,0,0,0-.411-.726v-.14c.131-.263.245-.5.35-.726v.149l-1.033-.822h.114l-.629.5h0c-.525-.227-.823-.254-.814-.28a.486.486,0,0,1,.219,0,2.712,2.712,0,0,1,.647.158h-.07l.594-.534.052-.053.071.053,1.075.779.08.053-.044.1c-.1.228-.21.473-.324.735v-.14a3.206,3.206,0,0,1,.472.77l-.132-.087.8.061h.122v.131c.061.411.132.875.193,1.313v.131l-.131.053-.753.289.114-.149a3.323,3.323,0,0,1-.228.875v-.2l.516.612.105.123-.1.122-.8,1.059-.1.131-.149-.07-.735-.324h.209a3.567,3.567,0,0,1-.8.464l.131-.175a3.17,3.17,0,0,1-.07.805v.166H605.2l-1.321.184h-.166l-.061-.157-.14-.368-.07-.192v-.1h0l.175.14h0a3.559,3.559,0,0,1-.875-.236h.219l-.621.516-.131.105-.131-.1-1.05-.8-.131-.1.07-.149.332-.726v.21a3.52,3.52,0,0,1-.464-.8l.166.122-.8-.079h-.158v-.149c-.061-.455-.122-.875-.175-1.321v-.149l.14-.053.752-.271-.114.149a3.334,3.334,0,0,1,.236-.875v.175l-.508-.621-.088-.1.088-.1.814-1.05.079-.1.105.053.726.341h-.15a3.262,3.262,0,0,1,.787-.438l-.07.1a7.233,7.233,0,0,1,.079-.8V142.1h.079l1.321-.14h.053A4.066,4.066,0,0,1,604.35,142.764Z" transform="translate(-256.911 -120.32)"></path><path class="g" d="M609.6,405.824h.228a3.054,3.054,0,0,0,.665-.061,6.873,6.873,0,0,0,2.511-.831,7.007,7.007,0,0,0,2.923-3.159,6.843,6.843,0,0,0,.647-2.721V355.563c0-34.957-.044-85.532-.07-148.025V125.7a8.924,8.924,0,0,0-.376-3.273,6.823,6.823,0,0,0-1.75-2.747,6.935,6.935,0,0,0-2.844-1.636,11.39,11.39,0,0,0-3.334-.263h-6.939l-117.251.017H215.185a6.858,6.858,0,0,0-6.536,4.769,15.279,15.279,0,0,0-.315,4.375V397.852a13.116,13.116,0,0,0,.07,1.881,6.961,6.961,0,0,0,.5,1.75,6.849,6.849,0,0,0,5.731,4.086c1.225.052,2.511,0,3.763,0H407.328l202.293.149-202.293.149H214.6a7.208,7.208,0,0,1-6.046-4.314,6.967,6.967,0,0,1-.525-1.881,12.975,12.975,0,0,1-.079-1.934V124.579a7.829,7.829,0,0,1,.333-2.257,7.281,7.281,0,0,1,6.939-5.066H608.229a11.4,11.4,0,0,1,3.43.289,7.184,7.184,0,0,1,4.821,4.6,9.1,9.1,0,0,1,.385,3.378v81.822c0,62.493-.053,113.068-.07,148.025v43.5a6.953,6.953,0,0,1-.665,2.739,7.055,7.055,0,0,1-2.966,3.168,6.883,6.883,0,0,1-2.529.823A7.6,7.6,0,0,1,609.6,405.824Z" transform="translate(-207.922 -117.229)"></path><path class="e" d="M228.621,152.573h0a6.921,6.921,0,0,1-6.921-6.913h0a6.921,6.921,0,0,1,6.921-6.921h0a6.922,6.922,0,0,1,6.913,6.921h0A6.913,6.913,0,0,1,228.621,152.573Z" transform="translate(-209.642 -119.918)"></path><rect class="f" width="3.456" height="11.568" transform="translate(340.622 165.805)"></rect><rect class="f" width="3.456" height="13.239" transform="translate(311.782 164.134)"></rect><rect class="f" width="3.456" height="16.004" transform="translate(318.992 161.369)"></rect><rect class="f" width="3.456" height="15.129" transform="translate(326.202 162.244)"></rect><rect class="f" width="3.456" height="20.239" transform="translate(333.412 157.134)"></rect><rect class="f" width="3.456" height="20.143" transform="translate(347.832 157.23)"></rect><rect class="f" width="3.456" height="13.528" transform="translate(355.042 163.845)"></rect><rect class="f" width="3.456" height="19.259" transform="translate(362.252 158.114)"></rect><rect class="f" width="3.456" height="23.59" transform="translate(369.463 153.782)"></rect><rect class="f" width="3.456" height="19.355" transform="translate(376.681 158.017)"></rect><path class="a" d="M637.467,327.079H552.53a7,7,0,0,1-7-7v-50.75a7,7,0,0,1,7-7h84.937a7,7,0,0,1,7,7v50.75A7,7,0,0,1,637.467,327.079ZM552.53,262.968a6.326,6.326,0,0,0-6.318,6.318v50.75a6.325,6.325,0,0,0,6.318,6.318h84.937a6.326,6.326,0,0,0,6.318-6.318v-50.75a6.327,6.327,0,0,0-6.318-6.318Z" transform="translate(-250.119 -135.366)"></path><path class="a" d="M602.52,281.543c0,.1-9.826.175-21.945.175s-21.945-.079-21.945-.175,9.826-.184,21.945-.184S602.52,281.438,602.52,281.543Z" transform="translate(-251.756 -137.745)"></path><path class="a" d="M637.467,237.749H552.53a7,7,0,0,1-7-7V180a7,7,0,0,1,7-7h84.937a7,7,0,0,1,7,7v50.75A7,7,0,0,1,637.467,237.749ZM552.53,173.638a6.326,6.326,0,0,0-6.318,6.318v50.75a6.326,6.326,0,0,0,6.318,6.326h84.937a6.326,6.326,0,0,0,6.318-6.326V180a6.327,6.327,0,0,0-6.318-6.318Z" transform="translate(-250.119 -124.2)"></path><path class="a" d="M566.549,223h0a1.679,1.679,0,0,1-1.689-1.671v-31.64A1.68,1.68,0,0,1,566.531,188h.018a1.68,1.68,0,0,1,1.68,1.68v31.57A1.681,1.681,0,0,1,566.62,223Z" transform="translate(-252.535 -126.075)"></path><path class="f" d="M566.549,224.738h0a1.679,1.679,0,0,1-1.689-1.671V202.688A1.68,1.68,0,0,1,566.531,201h.018a1.68,1.68,0,0,1,1.68,1.68v20.379a1.68,1.68,0,0,1-1.68,1.68Z" transform="translate(-252.535 -127.7)"></path><path class="g" d="M565.43,229.639v2.809h-.289V229.9h-.691v-.262Z" transform="translate(-252.484 -131.28)"></path><path class="g" d="M566.34,231.044c0-.875.472-1.435,1.12-1.435s1.12.534,1.12,1.435-.472,1.426-1.12,1.426S566.34,231.937,566.34,231.044Zm1.943,0c0-.753-.333-1.164-.823-1.164s-.831.411-.831,1.164.341,1.164.831,1.164.823-.42.823-1.164Z" transform="translate(-252.72 -131.276)"></path><path class="a" d="M574.21,223h0a1.679,1.679,0,0,1-1.68-1.68h0V189.688A1.68,1.68,0,0,1,574.2,188h.009a1.689,1.689,0,0,1,1.689,1.689v31.561A1.69,1.69,0,0,1,574.272,223Z" transform="translate(-253.494 -126.075)"></path><path class="f" d="M574.21,223.822h0a1.679,1.679,0,0,1-1.68-1.68h0V195.349a1.68,1.68,0,0,1,1.68-1.68h0a1.689,1.689,0,0,1,1.689,1.68v26.793A1.689,1.689,0,0,1,574.21,223.822Z" transform="translate(-253.494 -126.784)"></path><path class="g" d="M573.726,232.19v.254h-1.969v-.2l1.164-1.146c.324-.315.385-.5.385-.691,0-.324-.236-.525-.665-.525a.954.954,0,0,0-.761.306l-.21-.175a1.289,1.289,0,0,1,1-.4c.569,0,.928.289.928.761a1.165,1.165,0,0,1-.455.875l-.954.936Z" transform="translate(-253.386 -131.276)"></path><path class="g" d="M574.45,231.044c0-.875.473-1.435,1.12-1.435s1.129.534,1.129,1.435-.473,1.426-1.129,1.426S574.45,231.937,574.45,231.044Zm1.951,0c0-.753-.341-1.164-.831-1.164s-.822.411-.822,1.164.332,1.164.822,1.164.8-.42.8-1.164Z" transform="translate(-253.734 -131.276)"></path><path class="a" d="M581.939,223h0a1.679,1.679,0,0,1-1.69-1.669c0-.027,0-.053,0-.081V189.688A1.68,1.68,0,0,1,581.921,188h.018a1.68,1.68,0,0,1,1.68,1.68v31.57A1.681,1.681,0,0,1,582.009,223Z" transform="translate(-254.458 -126.075)"></path><path class="f" d="M581.939,225.425h0a1.679,1.679,0,0,1-1.689-1.671V208.188a1.68,1.68,0,0,1,1.671-1.689h.018a1.68,1.68,0,0,1,1.68,1.68v15.566a1.68,1.68,0,0,1-1.68,1.68Z" transform="translate(-254.459 -128.387)"></path><path class="g" d="M581.389,231.643c0,.473-.341.831-1.024.831a1.485,1.485,0,0,1-1.015-.359l.149-.228a1.22,1.22,0,0,0,.875.324c.464,0,.726-.219.726-.569s-.236-.56-.761-.56h-.2v-.21l.779-.971h-1.479v-.262h1.8v.21l-.8,1C581.083,230.873,581.389,231.2,581.389,231.643Z" transform="translate(-254.346 -131.28)"></path><path class="g" d="M582.14,231.044c0-.875.464-1.435,1.12-1.435s1.12.534,1.12,1.435-.473,1.426-1.12,1.426S582.14,231.937,582.14,231.044Zm1.943,0c0-.753-.333-1.164-.823-1.164s-.875.411-.875,1.164.341,1.164.875,1.164S584.083,231.788,584.083,231.044Z" transform="translate(-254.695 -131.276)"></path><path class="a" d="M589.63,223h0a1.68,1.68,0,0,1-1.682-1.678c0-.024,0-.048,0-.072V189.688A1.68,1.68,0,0,1,589.621,188h.009a1.689,1.689,0,0,1,1.689,1.689v31.561A1.69,1.69,0,0,1,589.692,223Z" transform="translate(-255.421 -126.075)"></path><path class="f" d="M589.63,223.822h0a1.679,1.679,0,0,1-1.68-1.68h0V195.349a1.68,1.68,0,0,1,1.68-1.68h0a1.689,1.689,0,0,1,1.689,1.68v26.793A1.689,1.689,0,0,1,589.63,223.822Z" transform="translate(-255.421 -126.784)"></path><path class="g" d="M589.541,231.7h-.569v.735h-.289V231.7H587.1v-.21l1.488-1.864h.324l-1.435,1.811h1.216v-.613h.28v.648h.569Z" transform="translate(-255.315 -131.279)"></path><path class="g" d="M590.19,231.044c0-.875.464-1.435,1.12-1.435s1.12.534,1.12,1.435-.472,1.426-1.12,1.426S590.19,231.937,590.19,231.044Zm1.943,0c0-.753-.332-1.164-.823-1.164s-.831.411-.831,1.164.341,1.164.831,1.164.858-.42.858-1.164Z" transform="translate(-255.701 -131.276)"></path><path class="a" d="M597.329,223h0a1.679,1.679,0,0,1-1.689-1.671v-31.64A1.68,1.68,0,0,1,597.311,188h.018a1.68,1.68,0,0,1,1.68,1.68v31.57A1.681,1.681,0,0,1,597.4,223Z" transform="translate(-256.382 -126.075)"></path><path class="f" d="M597.329,224.555h0a1.679,1.679,0,0,1-1.689-1.671V201.219a1.68,1.68,0,0,1,1.68-1.68h.009a1.68,1.68,0,0,1,1.68,1.68h0v21.656a1.68,1.68,0,0,1-1.68,1.68Z" transform="translate(-256.382 -127.518)"></path><path class="g" d="M597.1,231.629c0,.473-.333.875-1.015.875a1.456,1.456,0,0,1-1.006-.359l.14-.228a1.236,1.236,0,0,0,.875.324c.473,0,.726-.236.726-.577s-.228-.586-.936-.586h-.6l.149-1.409h1.54v.263h-1.286l-.1.875h.359C596.786,230.833,597.1,231.13,597.1,231.629Z" transform="translate(-256.312 -131.284)"></path><path class="g" d="M597.81,231.044c0-.875.473-1.435,1.12-1.435s1.12.534,1.12,1.435-.472,1.426-1.12,1.426S597.81,231.937,597.81,231.044Zm1.943,0c0-.753-.333-1.164-.823-1.164s-.831.411-.831,1.164.341,1.164.831,1.164S599.753,231.788,599.753,231.044Z" transform="translate(-256.654 -131.276)"></path><path class="a" d="M605.02,223h0a1.679,1.679,0,0,1-1.68-1.68h0V189.688A1.68,1.68,0,0,1,605.011,188h.009a1.689,1.689,0,0,1,1.689,1.689v31.561A1.69,1.69,0,0,1,605.082,223Z" transform="translate(-257.345 -126.075)"></path><path class="f" d="M605.02,225.29h0a1.653,1.653,0,0,1-1.68-1.531V208.167A1.75,1.75,0,0,1,605,206.33h.022a1.689,1.689,0,0,1,1.689,1.689V223.54a1.69,1.69,0,0,1-1.627,1.749Z" transform="translate(-257.344 -128.366)"></path><path class="g" d="M604.709,231.605a.875.875,0,0,1-.871.879.8.8,0,0,1-.092,0c-.744,0-1.146-.516-1.146-1.409a1.289,1.289,0,0,1,1.278-1.453,1.229,1.229,0,0,1,.665.158l-.114.228a.967.967,0,0,0-.543-.131c-.6,0-1,.394-1,1.155v.227a.987.987,0,0,1,1.817.32Zm-.289,0c0-.368-.271-.6-.7-.6a.648.648,0,0,0-.723.563.473.473,0,0,0,0,.049c0,.315.254.6.744.6a.612.612,0,0,0,.678-.538c0-.022,0-.044,0-.066Z" transform="translate(-257.252 -131.277)"></path><path class="g" d="M605.39,231.044c0-.875.464-1.435,1.12-1.435s1.12.534,1.12,1.435-.473,1.426-1.12,1.426S605.39,231.937,605.39,231.044Zm1.943,0c0-.753-.333-1.164-.823-1.164s-.875.411-.875,1.164.341,1.164.875,1.164S607.333,231.788,607.333,231.044Z" transform="translate(-257.601 -131.276)"></path><path class="a" d="M612.719,223h0a1.679,1.679,0,0,1-1.689-1.671v-31.64A1.68,1.68,0,0,1,612.7,188h.018a1.68,1.68,0,0,1,1.68,1.68v31.57A1.681,1.681,0,0,1,612.79,223Z" transform="translate(-258.306 -126.075)"></path><path class="f" d="M612.719,223.593h0a1.679,1.679,0,0,1-1.689-1.671v-28.4a1.68,1.68,0,0,1,1.68-1.68h.009a1.68,1.68,0,0,1,1.68,1.68v28.394A1.68,1.68,0,0,1,612.719,223.593Z" transform="translate(-258.306 -126.555)"></path><path class="g" d="M612.255,229.639v.21l-1.181,2.625h-.315l1.155-2.546H610.47v.525h-.28v-.787Z" transform="translate(-258.201 -131.28)"></path><path class="g" d="M612.89,231.044c0-.875.464-1.435,1.12-1.435s1.12.534,1.12,1.435-.473,1.426-1.12,1.426S612.89,231.937,612.89,231.044Zm1.943,0c0-.753-.332-1.164-.823-1.164s-.875.411-.875,1.164.341,1.164.875,1.164S614.833,231.788,614.833,231.044Z" transform="translate(-258.538 -131.276)"></path><path class="a" d="M620.41,223h0a1.679,1.679,0,0,1-1.68-1.68V189.688A1.68,1.68,0,0,1,620.4,188h.009a1.689,1.689,0,0,1,1.689,1.689v31.561A1.69,1.69,0,0,1,620.472,223Z" transform="translate(-259.269 -126.075)"></path><path class="f" d="M620.41,225.884h0a1.679,1.679,0,0,1-1.68-1.68V211.849a1.68,1.68,0,0,1,1.68-1.68h0a1.689,1.689,0,0,1,1.689,1.68V224.2A1.689,1.689,0,0,1,620.41,225.884Z" transform="translate(-259.269 -128.846)"></path><path class="g" d="M619.959,231.705c0,.5-.42.805-1.094.805s-1.085-.306-1.085-.805a.7.7,0,0,1,.542-.691.638.638,0,0,1-.437-.621c0-.455.385-.744.98-.744s.989.289.989.744a.639.639,0,0,1-.446.621A.71.71,0,0,1,619.959,231.705Zm-.3,0c0-.341-.3-.56-.8-.56s-.788.219-.788.56.289.569.788.569S619.661,232.012,619.661,231.705Zm-.8-.787c.438,0,.7-.193.7-.5s-.28-.516-.7-.516-.691.193-.691.508.254.464.691.464Z" transform="translate(-259.15 -131.281)"></path><path class="g" d="M620.72,231.044c0-.875.473-1.435,1.12-1.435s1.129.534,1.129,1.435-.472,1.426-1.129,1.426S620.72,231.937,620.72,231.044Zm1.951,0c0-.753-.341-1.164-.875-1.164s-.823.411-.823,1.164.333,1.164.823,1.164S622.671,231.788,622.671,231.044Z" transform="translate(-259.517 -131.276)"></path><path class="a" d="M628.112,223h0a1.68,1.68,0,0,1-1.664-1.7c0-.018,0-.036,0-.054V189.688A1.68,1.68,0,0,1,628.112,188h0a1.68,1.68,0,0,1,1.68,1.68v31.57A1.681,1.681,0,0,1,628.183,223Z" transform="translate(-260.233 -126.075)"></path><path class="f" d="M628.109,226.894h0a1.662,1.662,0,0,1-1.689-1.531v-4.375a1.75,1.75,0,0,1,1.668-1.828h.021a1.681,1.681,0,0,1,1.68,1.68v4.305a1.681,1.681,0,0,1-1.609,1.749Z" transform="translate(-260.229 -129.97)"></path><path class="g" d="M627.466,231.011c0,.954-.525,1.453-1.286,1.453a1.3,1.3,0,0,1-.665-.149l.114-.236a1,1,0,0,0,.542.131c.613,0,1-.385,1-1.155,0-.075,0-.151,0-.227a.994.994,0,0,1-1.825-.312.633.633,0,0,1,0-.082.875.875,0,0,1,.871-.879c.031,0,.061,0,.092,0C627.055,229.6,627.466,230.127,627.466,231.011Zm-.4-.56c0-.306-.254-.6-.744-.6a.613.613,0,0,0-.679.539.52.52,0,0,0,0,.074c0,.367.271.6.709.6a.647.647,0,0,0,.714-.572C627.062,230.477,627.063,230.464,627.064,230.451Z" transform="translate(-260.095 -131.269)"></path><path class="g" d="M628.24,231.044c0-.875.472-1.435,1.12-1.435s1.12.534,1.12,1.435-.472,1.426-1.12,1.426S628.24,231.937,628.24,231.044Zm1.951,0c0-.753-.341-1.164-.831-1.164s-.822.411-.822,1.164.332,1.164.822,1.164.814-.42.814-1.164Z" transform="translate(-260.457 -131.276)"></path><path class="a" d="M635.8,223h0a1.679,1.679,0,0,1-1.68-1.68V189.688A1.68,1.68,0,0,1,635.791,188h.009a1.689,1.689,0,0,1,1.689,1.689v31.561A1.69,1.69,0,0,1,635.862,223Z" transform="translate(-261.192 -126.075)"></path><path class="f" d="M635.8,225.29h0a1.653,1.653,0,0,1-1.68-1.531V208.167a1.75,1.75,0,0,1,1.659-1.837h.021a1.689,1.689,0,0,1,1.689,1.689V223.54a1.69,1.69,0,0,1-1.627,1.749Z" transform="translate(-261.192 -128.366)"></path><path class="g" d="M633.145,229.639v2.809h-.289V229.9H632.2v-.262Z" transform="translate(-260.952 -131.28)"></path><path class="g" d="M634.05,231.044c0-.875.464-1.435,1.12-1.435s1.12.534,1.12,1.435-.472,1.426-1.12,1.426S634.05,231.937,634.05,231.044Zm1.943,0c0-.753-.333-1.164-.823-1.164s-.875.411-.875,1.164.341,1.164.875,1.164.823-.42.823-1.164Z" transform="translate(-261.183 -131.276)"></path><path class="g" d="M637.08,231.044c0-.875.473-1.435,1.12-1.435s1.12.534,1.12,1.435-.473,1.426-1.12,1.426S637.08,231.937,637.08,231.044Zm1.951,0c0-.753-.341-1.164-.875-1.164s-.822.411-.822,1.164.333,1.164.822,1.164S639.031,231.788,639.031,231.044Z" transform="translate(-261.562 -131.276)"></path><path class="k" d="M572.439,376.8a11.532,11.532,0,0,0-2.354,1.8,11.752,11.752,0,0,0-1.8,2.345,11.371,11.371,0,0,0,0,11.375,11.494,11.494,0,0,0,1.8,2.345,11.172,11.172,0,0,0,2.354,1.8,11.279,11.279,0,0,0,11.331,0,10.944,10.944,0,0,0,2.319-1.75h0a11.6,11.6,0,0,0,2.94-5.075A11.344,11.344,0,0,0,572.4,376.883Z" transform="translate(-252.772 -149.496)"></path><path class="f" d="M583.454,396.107a11.5,11.5,0,0,1-2.73,1.137,11.28,11.28,0,0,1-8.6-1.137,11.177,11.177,0,0,1-2.354-1.8,11.5,11.5,0,0,1-1.8-2.345,11.372,11.372,0,0,1,0-11.375,11.782,11.782,0,0,1,1.8-2.345,11.574,11.574,0,0,1,8.024-3.3v-2.231a13.519,13.519,0,0,0-11.743,6.781,13.252,13.252,0,0,0-1.356,3.273,13.743,13.743,0,0,0-.464,3.5,13.541,13.541,0,0,0,.464,3.5,13,13,0,0,0,1.356,3.281,13.789,13.789,0,0,0,2.153,2.818,13.417,13.417,0,0,0,2.818,2.144,13.092,13.092,0,0,0,3.273,1.365,13.525,13.525,0,0,0,7,0,12.963,12.963,0,0,0,3.273-1.365,13.226,13.226,0,0,0,2.791-2.126l-1.592-1.584A10.961,10.961,0,0,1,583.454,396.107Z" transform="translate(-252.456 -149.163)"></path><path class="a" d="M592.838,382.773a13.568,13.568,0,0,0-13.108-10.054v2.231a11.344,11.344,0,0,1,10.955,14.28,11.6,11.6,0,0,1-2.94,5.075h0l1.592,1.584h0a13.817,13.817,0,0,0,2.152-2.818,13.361,13.361,0,0,0,1.356-3.281,13.578,13.578,0,0,0,.464-3.5A13.8,13.8,0,0,0,592.838,382.773Z" transform="translate(-254.394 -149.164)"></path><path class="g" d="M576.82,389.481a1.226,1.226,0,0,1-1.246,1.2.816.816,0,0,1-.093-.005c-1.041,0-1.6-.718-1.6-1.96a1.793,1.793,0,0,1,1.75-2.021,1.828,1.828,0,0,1,.927.21l-.157.324a1.406,1.406,0,0,0-.761-.184c-.875,0-1.391.543-1.391,1.61v.315a1.26,1.26,0,0,1,1.2-.674,1.19,1.19,0,0,1,1.359.992A1.265,1.265,0,0,1,576.82,389.481Zm-.4,0a1.012,1.012,0,0,0-1.977-.141.842.842,0,0,0-.01.141.929.929,0,0,0,1.033.875.875.875,0,0,0,.95-.793c0-.025,0-.049,0-.074Z" transform="translate(-253.663 -150.911)"></path><path class="g" d="M580.406,389.5c0,.665-.464,1.181-1.426,1.181a2.026,2.026,0,0,1-1.4-.5l.193-.324a1.747,1.747,0,0,0,1.208.455c.665,0,1.015-.324,1.015-.8s-.315-.823-1.3-.823h-.875l.2-1.96h2.144v.359h-1.75l-.14,1.243h.508C579.96,388.34,580.406,388.8,580.406,389.5Z" transform="translate(-254.125 -150.916)"></path><path class="g" d="M581.26,387.768c0-.639.359-1.059.875-1.059s.875.411.875,1.059-.359,1.068-.875,1.068S581.26,388.407,581.26,387.768Zm1.488,0c0-.508-.236-.814-.6-.814s-.6.315-.6.814.236.814.6.814S582.748,388.275,582.748,387.768Zm1.75-1.032h.324l-2.669,3.911h-.333Zm-.875,2.879c0-.639.359-1.059.875-1.059s.875.42.875,1.059-.359,1.068-.875,1.068-.831-.429-.831-1.094Zm1.487,0c0-.5-.236-.814-.6-.814s-.6.306-.6.814.236.814.6.814.648-.306.648-.84Z" transform="translate(-254.585 -150.913)"></path><path class="a" d="M636.05,386.3a14.1,14.1,0,0,1-.455,3.5,13.356,13.356,0,0,1-1.365,3.273,13.774,13.774,0,0,1-2.153,2.809,13.2,13.2,0,0,1-2.818,2.153,12.993,12.993,0,0,1-3.273,1.365,13.526,13.526,0,0,1-7,0,12.967,12.967,0,0,1-3.273-1.365,13.493,13.493,0,0,1-4.961-4.961,13.409,13.409,0,0,1-1.794-5.845h2.249a11.5,11.5,0,0,0,.341,1.995,11.687,11.687,0,0,0,1.129,2.73,11.47,11.47,0,0,0,6.886,5.285,11.379,11.379,0,0,0,5.871,0,11.385,11.385,0,0,0,6.886-5.285,11.4,11.4,0,0,0,1.138-2.73,11.645,11.645,0,0,0,0-5.871,11.375,11.375,0,0,0-8.024-8.024,11.582,11.582,0,0,0-2.94-.385v-2.231a14.016,14.016,0,0,1,3.5.455,13.664,13.664,0,0,1,9.608,9.608A14.022,14.022,0,0,1,636.05,386.3Z" transform="translate(-258.047 -149.163)"></path><path class="g" d="M620.5,386.479v.289l-1.645,3.666h-.437l1.619-3.561h-2.021v.735h-.394v-1.094Z" transform="translate(-259.13 -150.884)"></path><path class="g" d="M624.046,389.244c0,.665-.464,1.19-1.417,1.19a2.045,2.045,0,0,1-1.409-.508l.2-.315a1.683,1.683,0,0,0,1.2.455c.665,0,1.015-.332,1.015-.8s-.306-.814-1.3-.814H621.5l.2-1.969h2.135v.359h-1.75l-.14,1.251h.508C623.583,388.089,624.046,388.553,624.046,389.244Z" transform="translate(-259.58 -150.884)"></path><path class="g" d="M624.89,387.517c0-.639.359-1.068.875-1.068s.875.42.875,1.068-.368,1.059-.875,1.059S624.89,388.155,624.89,387.517Zm1.487,0c0-.516-.245-.814-.6-.814s-.6.306-.6.814.236.805.6.805S626.378,388.024,626.378,387.517Zm1.75-1.041h.333l-2.66,3.955h-.333Zm-.875,2.887c0-.639.367-1.068.875-1.068s.875.429.875,1.068-.359,1.059-.875,1.059-.84-.42-.84-1.059Zm1.487,0c0-.507-.236-.814-.6-.814s-.6.3-.6.814.236.805.6.805.639-.306.639-.805Z" transform="translate(-260.038 -150.88)"></path><path class="f" d="M633.808,386.3a11.623,11.623,0,0,1-.376,2.931,11.4,11.4,0,0,1-1.138,2.73,11.385,11.385,0,0,1-6.886,5.285,11.379,11.379,0,0,1-5.871,0,11.471,11.471,0,0,1-6.886-5.285,11.689,11.689,0,0,1-1.129-2.73,11.5,11.5,0,0,1-.341-1.995h0v-.945a11.133,11.133,0,0,1,.385-2.931,11.375,11.375,0,0,1,8.015-8.024,11.649,11.649,0,0,1,2.94-.385v-2.231a13.35,13.35,0,0,0-6.79,1.82,13.533,13.533,0,0,0-4.97,4.97,13.291,13.291,0,0,0-1.356,3.273,13.6,13.6,0,0,0-.464,3.5v.945h0a13.074,13.074,0,0,0,.429,2.573,12.944,12.944,0,0,0,1.365,3.272,13.49,13.49,0,0,0,4.96,4.961,12.993,12.993,0,0,0,3.273,1.365,13.526,13.526,0,0,0,7,0,12.968,12.968,0,0,0,3.273-1.365,13.2,13.2,0,0,0,2.818-2.152,13.708,13.708,0,0,0,2.153-2.809,13.287,13.287,0,0,0,1.365-3.272,14.023,14.023,0,0,0,.455-3.5Z" transform="translate(-258.045 -149.164)"></path><path class="a" d="M638.779,409.357H551.148a5.905,5.905,0,0,1-5.9-5.9V354.267a5.906,5.906,0,0,1,5.9-5.9h87.632a5.9,5.9,0,0,1,5.9,5.9v49.193a5.9,5.9,0,0,1-5.9,5.9Zm-87.632-60.314a5.25,5.25,0,0,0-5.25,5.25v49.193a5.25,5.25,0,0,0,5.25,5.25h87.632a5.25,5.25,0,0,0,5.25-5.25V354.267a5.251,5.251,0,0,0-5.25-5.25Z" transform="translate(-250.084 -146.12)"></path><path class="a" d="M597.273,364.135c0,.1-9.17.175-20.466.175s-20.466-.079-20.466-.175,9.161-.166,20.466-.166S597.273,364.039,597.273,364.135Z" transform="translate(-251.47 -148.07)"></path><path class="c" d="M500.755,300.286c0,.131-49.972.228-111.6.228s-111.607-.1-111.607-.228,49.963-.228,111.607-.228S500.755,300.164,500.755,300.286Z" transform="translate(-216.623 -140.082)"></path><path class="c" d="M371.488,285.907c-.122,0-.227-22.6-.227-50.444s.1-50.445.227-50.445.228,22.6.228,50.445S371.619,285.907,371.488,285.907Z" transform="translate(-228.336 -125.702)"></path><path class="c" d="M454.258,285.9c-.122,0-.227-22.6-.227-50.444s.1-50.462.227-50.462.228,22.6.228,50.445S454.4,285.9,454.258,285.9Z" transform="translate(-238.682 -125.7)"></path><text class="l" transform="translate(66.517 49.091)"><tspan x="0" y="0">DISTRIBUTION</tspan><tspan class="m" y="0" xml:space="preserve"> MANAGEMENT</tspan></text><text class="n" transform="translate(89.873 122.263)"><tspan x="0" y="0">PRODUCT A</tspan></text><text class="n" transform="translate(164.604 122.263)"><tspan x="0" y="0">PRODUCT B</tspan></text><text class="l" transform="translate(233.383 123.263)"><tspan x="0" y="0">PRODUCT C</tspan></text><g transform="translate(90.926 134.205)"><rect class="f" width="32.826" height="13.326" rx="1.114"></rect><text class="o" transform="translate(5.315 6.918)"><tspan x="0" y="0">View Data</tspan></text></g><g transform="translate(165.172 134.051)"><rect class="f" width="32.826" height="13.326" rx="1.114"></rect><text class="o" transform="translate(5.315 6.918)"><tspan x="0" y="0">View Data</tspan></text></g><g transform="translate(233.377 134.051)"><rect class="f" width="32.826" height="13.326" rx="1.114"></rect><text class="o" transform="translate(5.315 6.918)"><tspan x="0" y="0">View Data</tspan></text></g><text class="n" transform="translate(86.518 175.615)"><tspan x="0" y="0">Distribution Progress</tspan></text><g transform="translate(86.518 66.937)"><rect class="j" width="43.053" height="43.053" rx="3.147"></rect><g transform="translate(10.996 11.381)"><rect class="b" width="15.653" height="20.18" transform="translate(5.292 0.028)"></rect><rect class="b" width="15.653" height="20.18" transform="translate(0.143 0.028)"></rect><path class="i" d="M322.968,208.872v-.884h-1.479v.884a.741.741,0,0,0,.646.731v.764h-.329c-.115,0-.208.066-.208.147h1.263c0-.081-.094-.147-.209-.147h-.328V209.6A.74.74,0,0,0,322.968,208.872Z" transform="translate(-319.629 -206.892)"></path><path class="i" d="M326.113,208.813a1.076,1.076,0,0,0-1.041-.817h0a1.079,1.079,0,0,0-1.042.817h.943v1.367a.209.209,0,0,1-.416,0h-.2a.409.409,0,1,0,.817,0v-1.374Z" transform="translate(-319.946 -206.893)"></path><path class="g" d="M340.346,217.8c0,.026-4.7.048-10.492.048s-10.491-.022-10.491-.048,4.7-.047,10.491-.047S340.346,217.767,340.346,217.8Z" transform="translate(-319.363 -208.112)"></path><path class="g" d="M328.462,227.026c-.024,0-.048-4.544-.048-10.145s.024-10.147.048-10.147.048,4.541.048,10.147S328.488,227.026,328.462,227.026Z" transform="translate(-320.494 -206.735)"></path><rect class="p" width="5.15" height="20.18" transform="translate(15.796 0.055)"></rect></g></g><g transform="translate(229.478 66.937)"><rect class="a" width="43.053" height="43.053" rx="3.147"></rect><g transform="translate(10.963 12.684)"><rect class="f" width="15.76" height="20.319" transform="translate(5.328 0.029)"></rect><rect class="f" width="15.76" height="20.319" transform="translate(0.144 0.029)"></rect><path class="i" d="M486.336,210.377v-.891h-1.488v.891a.746.746,0,0,0,.65.735v.769h-.332c-.116,0-.21.066-.21.148h1.271c0-.081-.095-.148-.21-.148h-.332v-.769A.746.746,0,0,0,486.336,210.377Z" transform="translate(-482.975 -208.382)"></path><path class="i" d="M489.5,210.317a1.085,1.085,0,0,0-1.049-.823h0a1.087,1.087,0,0,0-1.049.823h.949v1.377a.21.21,0,0,1-.418,0h-.2a.411.411,0,1,0,.822,0V210.31Z" transform="translate(-483.294 -208.383)"></path><path class="g" d="M503.834,219.362c0,.026-4.729.048-10.563.048s-10.564-.022-10.564-.048,4.728-.048,10.564-.048S503.834,219.332,503.834,219.362Z" transform="translate(-482.707 -209.61)"></path><path class="g" d="M491.868,228.655c-.025,0-.048-4.575-.048-10.215s.024-10.217.048-10.217.048,4.573.048,10.217S491.9,228.655,491.868,228.655Z" transform="translate(-483.846 -208.224)"></path><rect class="p" width="5.186" height="20.319" transform="translate(15.902 0.029)"></rect></g></g><g transform="translate(160.059 66.937)"><rect class="a" width="43.053" height="43.053" rx="3.147"></rect><g transform="translate(10.924 11.461)"><rect class="f" width="15.76" height="20.319" transform="translate(5.328 0.028)"></rect><rect class="j" width="15.76" height="20.319" transform="translate(0.144 0.028)"></rect><path class="i" d="M406.956,208.978v-.891h-1.488v.891a.744.744,0,0,0,.649.735v.77h-.331c-.115,0-.21.066-.21.148h1.271c0-.082-.095-.148-.21-.148h-.332v-.77A.746.746,0,0,0,406.956,208.978Z" transform="translate(-403.595 -206.984)"></path><path class="i" d="M410.123,208.918a1.085,1.085,0,0,0-1.048-.823h0a1.087,1.087,0,0,0-1.049.823h.949v1.376a.21.21,0,0,1-.419,0h-.2a.412.412,0,0,0,.823,0v-1.383Z" transform="translate(-403.914 -206.985)"></path><path class="g" d="M412.488,227.257c-.025,0-.048-4.575-.048-10.215s.024-10.216.048-10.216.048,4.573.048,10.216S412.515,227.257,412.488,227.257Z" transform="translate(-404.466 -206.826)"></path><rect class="j" width="5.186" height="20.319" transform="translate(15.902 0.028)"></rect><rect class="q" width="5.186" height="20.319" transform="translate(15.902 0.028)"></rect><path class="g" d="M424.454,217.963c0,.027-4.729.048-10.564.048s-10.563-.021-10.563-.048,4.728-.048,10.563-.048S424.454,217.933,424.454,217.963Z" transform="translate(-403.327 -208.212)"></path></g></g><g transform="translate(86.518 190.292)"><circle class="j" cx="5.229" cy="5.229" r="5.229" transform="translate(0 0.442)"></circle><path class="g" d="M433.088,340.765a10.636,10.636,0,0,0-.213-1.264,5.2,5.2,0,0,0-1.914-2.817,5.007,5.007,0,0,0-2.157-.946,5.108,5.108,0,0,0-5.049,8.034,4.733,4.733,0,0,0,1.063,1.063,4.868,4.868,0,0,0,1.292.7,5.159,5.159,0,0,0,2.684.228,5.006,5.006,0,0,0,2.157-.946A5.192,5.192,0,0,0,432.864,342a10.566,10.566,0,0,0,.213-1.259,3.924,3.924,0,0,1-.111,1.285,5.191,5.191,0,0,1-1.892,2.95,5.346,5.346,0,0,1-2.237,1.015,5.44,5.44,0,0,1-2.817-.218,5.089,5.089,0,0,1-1.355-.728,4.989,4.989,0,0,1-1.137-1.132,5.314,5.314,0,0,1,0-6.345,4.9,4.9,0,0,1,1.137-1.137,5.065,5.065,0,0,1,1.355-.728,5.421,5.421,0,0,1,2.817-.218,5.355,5.355,0,0,1,2.237,1.014,5.2,5.2,0,0,1,1.892,2.95A3.975,3.975,0,0,1,433.088,340.765Z" transform="translate(-321.256 -334.791)"></path><path class="g" d="M490.991,340.073a10.038,10.038,0,0,0-.218-1.265,5.255,5.255,0,0,0-1.907-2.816,5.118,5.118,0,0,0-4.847-.712,5.005,5.005,0,0,0-1.291.7,4.86,4.86,0,0,0-1.062,1.063,5.114,5.114,0,0,0,7.211,7.095,5.25,5.25,0,0,0,1.908-2.817c.207-.8.18-1.265.218-1.265a4.137,4.137,0,0,1-.112,1.291,5.291,5.291,0,0,1-6.945,3.742,5.047,5.047,0,0,1-1.361-.723,4.92,4.92,0,0,1-1.137-1.138,5.312,5.312,0,0,1,0-6.345,4.92,4.92,0,0,1,1.137-1.138,5.022,5.022,0,0,1,1.361-.723,5.291,5.291,0,0,1,6.945,3.742A4.165,4.165,0,0,1,490.991,340.073Z" transform="translate(-328.496 -334.704)"></path><path class="e" d="M314.64,339.57a17.287,17.287,0,0,1-2.034,2.344c-.186.2-.373.393-.532.574l-.1.1-.1-.1a11.845,11.845,0,0,1-1.594-1.684,11.088,11.088,0,0,1,1.769,1.493h-.186l.532-.579A17.509,17.509,0,0,1,314.64,339.57Z" transform="translate(-307.233 -335.313)"></path><rect class="j" width="37.856" height="2.126" transform="translate(11.446 4.609)"></rect><circle class="j" cx="5.229" cy="5.229" r="5.229" transform="translate(50.546 0.442)"></circle><path class="e" d="M372.408,339.57a17.768,17.768,0,0,1-2.035,2.344c-.191.2-.372.393-.531.574l-.09.1-.1-.1a11.167,11.167,0,0,1-1.594-1.684,11.5,11.5,0,0,1,1.765,1.493h-.186l.531-.579A17.347,17.347,0,0,1,372.408,339.57Z" transform="translate(-314.454 -335.313)"></path><rect class="j" width="37.856" height="2.126" transform="translate(61.987 4.609)"></rect><path class="g" d="M474.152,340.82c0,.074-8.475.138-18.928.138s-18.944-.064-18.944-.138,8.5-.138,18.928-.138S474.152,340.746,474.152,340.82Z" transform="translate(-322.981 -335.452)"></path></g><g transform="translate(86.667 214.837)"><path class="j" d="M306.967,367l.2-.392a2.368,2.368,0,0,0,1.594.613c.9,0,1.293-.381,1.293-.852,0-1.325-2.967-.515-2.967-2.293,0-.711.551-1.324,1.772-1.324a2.71,2.71,0,0,1,1.5.429l-.172.405a2.453,2.453,0,0,0-1.324-.4c-.877,0-1.27.393-1.27.871,0,1.325,2.968.528,2.968,2.281,0,.711-.564,1.318-1.8,1.318A2.6,2.6,0,0,1,306.967,367Z" transform="translate(-306.967 -362.756)"></path><path class="j" d="M314.045,367.433a1.178,1.178,0,0,1-.767.251.955.955,0,0,1-1.061-1.048v-2.188h-.613v-.417h.613v-.791h.49v.791h1.1v.417h-1.1v2.158a.613.613,0,0,0,.563.66l.051,0a.824.824,0,0,0,.54-.185Z" transform="translate(-307.547 -362.816)"></path><path class="j" d="M318.361,366.1h-3.028a1.337,1.337,0,0,0,1.405,1.264h.017a1.425,1.425,0,0,0,1.11-.479l.276.319a1.919,1.919,0,0,1-3.3-1.226,1.741,1.741,0,0,1,1.641-1.837q.066,0,.131,0a1.723,1.723,0,0,1,1.757,1.688c0,.051,0,.1,0,.151C318.367,365.994,318.361,366.062,318.361,366.1Zm-3.028-.361H317.9a1.288,1.288,0,0,0-2.569,0Z" transform="translate(-307.951 -362.929)"></path><path class="j" d="M323.679,365.951a1.746,1.746,0,0,1-1.652,1.837c-.05,0-.1,0-.15,0a1.575,1.575,0,0,1-1.373-.711v2.042h-.491v-4.96h.466v.668a1.582,1.582,0,0,1,1.4-.742,1.748,1.748,0,0,1,1.806,1.687A1.7,1.7,0,0,1,323.679,365.951Zm-.484,0a1.355,1.355,0,1,0-1.349,1.411,1.337,1.337,0,0,0,1.351-1.322C323.2,366.009,323.2,365.98,323.2,365.951Z" transform="translate(-308.598 -362.922)"></path><path class="j" d="M330.188,366.211c0,.809-.613,1.428-1.747,1.428a2.51,2.51,0,0,1-1.735-.613l.239-.392a2.12,2.12,0,0,0,1.5.552c.8,0,1.226-.368,1.226-.969s-.41-.956-1.306-.956h-.344V364.9l1.337-1.674H326.9v-.441H330v.349l-1.367,1.717C329.672,364.9,330.188,365.439,330.188,366.211Z" transform="translate(-309.434 -362.759)"></path><path class="g" d="M492.247,377.573c0,.086-40.661.159-90.806.159s-90.824-.073-90.824-.159,40.655-.159,90.824-.159S492.247,377.488,492.247,377.573Z" transform="translate(-307.423 -364.588)"></path><path class="g" d="M391.6,385.769a.925.925,0,0,1-.209,0h-.612l-2.361.031-8.676.049-28.625.043-28.632-.043L313.8,385.8l-2.355-.031h-.613a.972.972,0,0,1-.214,0h.828l2.355-.031,8.681-.049,28.632-.049,28.625.049,8.676.049,2.361.031h.822Z" transform="translate(-307.423 -365.616)"></path><path class="g" d="M475.8,397.682c0,.087-33.206.16-74.185.16s-74.185-.074-74.185-.16,33.2-.159,74.185-.159S475.8,397.6,475.8,397.682Z" transform="translate(-309.525 -367.102)"></path><path class="a" d="M316.383,399.483a3.243,3.243,0,1,1,3.244-3.243v.006A3.25,3.25,0,0,1,316.383,399.483Zm0-5.867a2.63,2.63,0,1,0,2.63,2.63h0A2.636,2.636,0,0,0,316.383,393.617Z" transform="translate(-307.739 -366.536)"></path><path class="g" d="M445.721,406.773h-1.2l-3.446.031-12.673.049-41.825.086-41.813-.049L332.1,406.84l-3.44-.031h0l3.44-.031,12.673-.049,41.813-.049,41.8.049,12.673.049,3.446.031h.9A1.109,1.109,0,0,1,445.721,406.773Z" transform="translate(-309.528 -368.246)"></path><path class="a" d="M316.383,409.552a3.243,3.243,0,1,1,3.244-3.244h0A3.25,3.25,0,0,1,316.383,409.552Zm0-5.874a2.63,2.63,0,1,0,2.63,2.63h0a2.636,2.636,0,0,0-2.63-2.618Z" transform="translate(-307.739 -367.794)"></path><circle class="j" cx="1.429" cy="1.429" r="1.429" transform="translate(7.216 37.098)"></circle><path class="g" d="M475.8,417.841c0,.086-33.206.159-74.185.159s-74.185-.073-74.185-.159,33.2-.159,74.185-.159S475.8,417.749,475.8,417.841Z" transform="translate(-309.525 -369.621)"></path><path class="a" d="M316.383,419.642a3.244,3.244,0,1,1,3.244-3.244h0A3.25,3.25,0,0,1,316.383,419.642Zm0-5.868a2.63,2.63,0,1,0,2.63,2.63V416.4a2.63,2.63,0,0,0-2.63-2.624Z" transform="translate(-307.739 -369.055)"></path></g></g><g transform="translate(127.259 490.42)"><path class="f" d="M688.435,543.914c0,.123-125.633.228-280.571.228s-280.606-.1-280.606-.228,125.607-.184,280.588-.184S688.435,543.791,688.435,543.914Z" transform="translate(-127.259 -543.73)"></path></g><g transform="translate(512.979 183.881)"><path class="g" d="M671.157,512.884v26.443l-32.9.158c.175-3.141,17.168-9.538,17.168-9.538l-.691-16.94Z" transform="translate(-576.851 -233.336)"></path><path class="a" d="M669.393,530.744a1.33,1.33,0,0,0-1.68.805,1.409,1.409,0,0,0,.98,1.619,1.3,1.3,0,0,0,1.514-.936,1.348,1.348,0,0,0-.936-1.531" transform="translate(-580.529 -235.559)"></path><path class="f" d="M638.255,542.93c-.166-1.033,1.3-1.68,1.3-1.68l31.5-1.146.1,2.625Z" transform="translate(-576.849 -236.738)"></path><path class="e" d="M659.166,532.445c.971.6,1.216,1.54,1.068,1.6s-.569-.621-1.365-1.129-1.6-.578-1.6-.735C657.232,532.034,658.194,531.841,659.166,532.445Z" transform="translate(-579.227 -235.729)"></path><path class="e" d="M654.981,534.579c.691.831.6,1.741.438,1.75s-.324-.717-.875-1.391-1.216-.945-1.216-1.1S654.29,533.747,654.981,534.579Z" transform="translate(-578.734 -235.947)"></path><path class="e" d="M650.371,536.771c-.333-.726-.805-1.181-.735-1.321s.831.21,1.242,1.085.192,1.645.052,1.645C650.756,538.171,650.7,537.5,650.371,536.771Z" transform="translate(-578.272 -236.153)"></path><path class="e" d="M659.353,527.124c1.068.053,1.759.621,1.671.761s-.753-.122-1.7-.2-1.68.149-1.75,0C657.5,527.561,658.285,527.071,659.353,527.124Z" transform="translate(-579.265 -235.115)"></path><path class="g" d="M730.063,516.164s2.634,19.784,3.1,21.464c.35,1.453-8.855,14.516-11.375,18.016a2.1,2.1,0,0,1-1.706.875h0c-.048,0-.1,0-.145-.005a2.1,2.1,0,0,1-1.946-2.244l1.2-16.844-4.27-20.064Z" transform="translate(-586.433 -233.746)"></path><path class="f" d="M720.825,559.4a2.1,2.1,0,0,0,1.75-.875c6.965-9.853,9.818-14.613,10.815-16.363a3.13,3.13,0,0,0,.359-2.153l-.166-.875L720.807,559.39Z" transform="translate(-587.169 -236.617)"></path><g class="r" transform="translate(140.727 296.464)"><path class="e" d="M729.17,532.643a1.278,1.278,0,0,1,1.75-.149,1.347,1.347,0,0,1,0,1.8,1.224,1.224,0,0,1-1.689-.053,1.277,1.277,0,0,1,0-1.7" transform="translate(-728.908 -532.216)"></path></g><path class="e" d="M723.178,550.295a3.345,3.345,0,0,0-1.592-.98,3.311,3.311,0,0,0-1.864,0c-.464.157-.665.359-.665.4a6.656,6.656,0,0,1,2.406,0,6.531,6.531,0,0,1,2.065,1.234C723.572,550.951,723.485,550.654,723.178,550.295Z" transform="translate(-586.95 -237.873)"></path><path class="e" d="M718.577,554.062a19.833,19.833,0,0,1,2.012-.114,18.326,18.326,0,0,1,1.951.525A2.967,2.967,0,0,0,718.577,554.062Z" transform="translate(-586.89 -238.411)"></path><path class="e" d="M719.537,545.316a10.78,10.78,0,0,1,6.073,1.155A5.76,5.76,0,0,0,719.537,545.316Z" transform="translate(-587.01 -237.339)"></path><path class="e" d="M724.8,539.537a5.252,5.252,0,0,0-5.3.77c.087.114,1.164-.437,2.625-.665s2.7.026,2.7-.1Z" transform="translate(-587.005 -236.618)"></path><path class="e" d="M722.765,532.316a4.6,4.6,0,0,0-2.117,0,4.468,4.468,0,0,0-1.908.927,1.956,1.956,0,0,0-.542.682,10.392,10.392,0,0,1,2.546-1.172,10.07,10.07,0,0,1,2.809,0C723.57,532.7,723.29,532.509,722.765,532.316Z" transform="translate(-586.843 -235.749)"></path><path class="e" d="M720.727,528.208a2.144,2.144,0,0,1,.691-1.094.447.447,0,0,1,.534,0,.972.972,0,0,1,.324.6,2.625,2.625,0,0,1-1.75,2.678,3.061,3.061,0,0,1-3.185-.954.8.8,0,0,1-.2-.621.447.447,0,0,1,.42-.324,2.894,2.894,0,0,1,1.286.35,9.922,9.922,0,0,1,2.258,1.663,1.958,1.958,0,0,0-.446-.639,6.131,6.131,0,0,0-1.671-1.3,2.893,2.893,0,0,0-1.461-.437.875.875,0,0,0-.77.586,1.206,1.206,0,0,0,.245.971,3.429,3.429,0,0,0,3.658,1.138,2.967,2.967,0,0,0,2.047-3.176,1.349,1.349,0,0,0-.49-.875.876.876,0,0,0-.971,0,2.412,2.412,0,0,0-.8,1.3,5.471,5.471,0,0,0-.227,2.117,1.753,1.753,0,0,0,.175.753A8.077,8.077,0,0,1,720.727,528.208Z" transform="translate(-586.66 -235.054)"></path><path class="f" d="M698.685,352.084l2.109,19.355L711.32,438l12.2,69.922-18.541-.683s-14.884-59.693-17.649-70.193c-2.328-8.846-13.011-47.5-13.011-47.5l-3.5-.875,2.791,115.93-20.283-.507s-9.4-124.041-9.625-128.5c-.6-11.524-.455-20.449-.455-20.449Z" transform="translate(-577.472 -213.237)"></path><path class="g" d="M676.386,378.512a11.769,11.769,0,0,1-2.511.674,4.242,4.242,0,0,1-3.5-1.006c-1-1.033-1.181-2.713-1.47-4.375-.56-3.351-.971-6.388-1.242-8.6-.131-1.041-.245-1.916-.333-2.625a3.928,3.928,0,0,0-.166-.954,4.6,4.6,0,0,0,0,.971c.035.612.1,1.514.193,2.625.2,2.223.56,5.285,1.129,8.645.149.831.263,1.654.481,2.45a4.673,4.673,0,0,0,1.129,2.1,3.833,3.833,0,0,0,1.934.989,5.221,5.221,0,0,0,1.873,0,10.047,10.047,0,0,0,2.529-.814,4.139,4.139,0,0,0,.875-.455A4.142,4.142,0,0,0,676.386,378.512Z" transform="translate(-580.46 -214.429)"></path><path class="g" d="M673.319,362.864a1.753,1.753,0,0,1,.612,1.347,1.5,1.5,0,0,1-1.085,1.313,1.521,1.521,0,0,1-1.671-.359,1.75,1.75,0,0,1-.35-1.435,2.3,2.3,0,0,1,.744-1.243c-.009-.017-.166,0-.394.175a1.754,1.754,0,0,0-.648,1.006,2.047,2.047,0,0,0,.341,1.75,2.021,2.021,0,0,0,3.5-1.2,2.041,2.041,0,0,0-.823-1.593,1.87,1.87,0,0,0-1.12-.394.838.838,0,0,0-.42.114A2.329,2.329,0,0,1,673.319,362.864Z" transform="translate(-580.876 -214.505)"></path><path class="g" d="M703.983,371.579a20.732,20.732,0,0,1-5.932-1.654,21.043,21.043,0,0,1-5.163-3.351c-1.19-1.033-1.82-1.794-1.881-1.75a2.475,2.475,0,0,0,.394.577,12.827,12.827,0,0,0,1.278,1.418,18.528,18.528,0,0,0,11.235,5.11,14.457,14.457,0,0,0,1.907,0,2.034,2.034,0,0,0,.691-.1C706.512,371.754,705.523,371.789,703.983,371.579Z" transform="translate(-583.444 -214.829)"></path><path class="g" d="M650.418,364.168a29.012,29.012,0,0,1-2.625,4.13,24.051,24.051,0,0,1-3.168,3.343,16.234,16.234,0,0,0-1.409,1.208,5.587,5.587,0,0,0,1.522-.954,18.3,18.3,0,0,0,3.255-3.29,22.85,22.85,0,0,0,2.625-4.27,10.77,10.77,0,0,0,.8-2.03C651.381,362.269,651.048,363.021,650.418,364.168Z" transform="translate(-577.471 -214.514)"></path><path class="s" d="M664.617,233.827c.131,8.444,8.584,9.739,8.584,9.739v6.484l4.008,9.739L692.88,243.5l1.907-27.291c.735-8.776-3.763-16.52-12.556-17.01h-.814a15.75,15.75,0,0,0-15.663,14.525C665.159,221.323,664.6,229.74,664.617,233.827Z" transform="translate(-580.145 -194.126)"></path><path class="t" d="M674.441,251.55c8.4.779,11.025-5.346,11.025-5.346a20.538,20.538,0,0,1-11.069,3.229Z" transform="translate(-581.368 -200.002)"></path><path class="g" d="M668.5,223.657a1.156,1.156,0,0,1,1.241-1.063,1.2,1.2,0,0,1,1.164,1.216l0,.023a1.154,1.154,0,0,1-1.241,1.062,1.207,1.207,0,0,1-1.164-1.208Z" transform="translate(-580.63 -197.051)"></path><path class="g" d="M668.458,219.666a3.181,3.181,0,0,1,1.881-.613,3.261,3.261,0,0,1,1.916.586c.411.3.639.5.5.656s-1.1-.49-2.4-.49-2.205.682-2.362.525C667.924,220.261,668.056,219.973,668.458,219.666Z" transform="translate(-580.565 -196.609)"></path><path class="g" d="M681.919,224.017a1.155,1.155,0,0,1,1.241-1.063,1.217,1.217,0,0,1,1.173,1.216v.014a1.163,1.163,0,0,1-1.242,1.08,1.216,1.216,0,0,1-1.173-1.216Z" transform="translate(-582.308 -197.096)"></path><path class="g" d="M683.048,219.906a3.142,3.142,0,0,1,1.881-.613,3.331,3.331,0,0,1,1.916.577c.411.306.639.5.5.656s-1.1-.481-2.4-.481-2.2.674-2.363.516C682.515,220.493,682.655,220.213,683.048,219.906Z" transform="translate(-582.389 -196.639)"></path><path class="g" d="M674.623,230.228a2.331,2.331,0,0,1-.56-.079.819.819,0,0,1-.542-.481,1.908,1.908,0,0,1,.166-1.3c.3-.8.6-1.671.928-2.546a43.474,43.474,0,0,1,2.712-6.414,43.065,43.065,0,0,1-2.179,6.606l-.98,2.529a1.749,1.749,0,0,0-.219.989c.061.219.376.324.709.324a8.077,8.077,0,0,1,2.109.376A8.614,8.614,0,0,1,674.623,230.228Z" transform="translate(-581.252 -196.652)"></path><path class="g" d="M681.218,233.712a3.037,3.037,0,0,1-1.094,2.012,3.428,3.428,0,0,1-2.266.8c-.639-.009-.98-.1-.971-.28s1.5-.061,2.713-1.059,1.207-2.4,1.417-2.4C681.113,232.775,681.288,233.151,681.218,233.712Z" transform="translate(-581.679 -198.325)"></path><path class="g" d="M682.975,214.12a5.164,5.164,0,0,1,4.506.481c.49.341.709.674.621.822-.2.324-1.426-.088-2.958-.271s-2.826-.009-2.949-.359C682.135,214.627,682.415,214.347,682.975,214.12Z" transform="translate(-582.341 -195.953)"></path><path class="g" d="M668.969,215.3a3.013,3.013,0,0,1,1.75-.6,3.06,3.06,0,0,1,1.75.473c.4.28.551.578.455.726-.21.306-1.12.114-2.2.114s-1.969.3-2.2,0C668.427,215.876,668.549,215.579,668.969,215.3Z" transform="translate(-580.63 -196.065)"></path><path class="g" d="M663.184,207.728A5.4,5.4,0,0,0,665.2,208.9a8.747,8.747,0,0,0,5.381.49,17.789,17.789,0,0,0,4.1-2.223,6.124,6.124,0,0,1,4.436-1.094c1.251.3,2.371,1.26,3.658,1.129,1.645-.175,2.607-2.039,4.182-2.546a2.9,2.9,0,0,1,.286-.055,2.844,2.844,0,0,1,3.214,2.418l5.163-3.369a6.807,6.807,0,0,0-9.538-7.193,5.847,5.847,0,0,0-9.441-1.164,5.62,5.62,0,0,0-8.68,1.207,32.4,32.4,0,0,1-1.706,3.5,4.3,4.3,0,0,1-2.161,1.531c-.656.21-1.488.367-1.689,1.024a1.189,1.189,0,0,0,.438,1.172,3.5,3.5,0,0,0,1.146.525,1.61,1.61,0,0,0-1.654,1.347A2.449,2.449,0,0,0,663.184,207.728Z" transform="translate(-579.858 -193.403)"></path><path class="g" d="M690.4,208.583a7.769,7.769,0,0,0,2.319,9.118l-.245,5.154c-.192,1.313.3,2.371,1.628,2.371h0s.691-4.786,1.041-6.37c.7-3.063,2.441-6.615,2.083-9.739,0,0,.009-1.881-2.266-4.051-2.853-2.7-10.859-7.481-14.788-7.411a18.822,18.822,0,0,0-10.9,3.929,11.105,11.105,0,0,0-3.5,4.1l24.1-.551C691.457,206.01,690.722,208.11,690.4,208.583Z" transform="translate(-580.289 -193.934)"></path><path class="g" d="M696.892,221.863a4.634,4.634,0,0,0,2.485,2.17c1.733.814,3.894,1.111,5.434,0a4.849,4.849,0,0,1-1.75-2.039,2.415,2.415,0,0,0,2.7-1.4,2.108,2.108,0,0,1-1.663-2.135,6.547,6.547,0,0,1,.831-2.809,5.452,5.452,0,0,0,.7-2.835,2.923,2.923,0,0,0-3-2.467,3.369,3.369,0,0,0-3.937-5.084l-.306-.21-.709.053c1.418,4.218.429,8.82-.682,13.125A5.824,5.824,0,0,0,696.892,221.863Z" transform="translate(-584.149 -194.859)"></path><path class="s" d="M697.3,234.04c.009.166,5.766,1.54,5.941-4.252s-5.486-4.1-5.635-4.043C697.6,225.745,697.288,233.874,697.3,234.04Z" transform="translate(-584.23 -197.411)"></path><path class="t" d="M699.034,232.424a1.084,1.084,0,0,0,.875.175,2.624,2.624,0,0,0,1.54-2.45,3.351,3.351,0,0,0-.306-1.619,1.41,1.41,0,0,0-1.024-.927.719.719,0,0,0-.56.131.612.612,0,0,0-.236.35c-.052.236.044.35.07.341s-.009-.122.079-.289a.516.516,0,0,1,.6-.254,1.157,1.157,0,0,1,.726.8,3.342,3.342,0,0,1,.245,1.444,2.518,2.518,0,0,1-1.216,2.205,1.016,1.016,0,0,1-.753,0c-.166-.087-.271-.158-.271-.158C698.789,232.179,698.815,232.31,699.034,232.424Z" transform="translate(-584.418 -197.676)"></path><path class="f" d="M703.243,217.75a2.127,2.127,0,0,0-1.094-1.234,7.025,7.025,0,0,0-2.555-.429,5.678,5.678,0,0,1-1.6-.306,2.842,2.842,0,0,1-1.409-1.12,5.056,5.056,0,0,1-.577-3.308c.14-1.024.4-1.881.551-2.625a11.126,11.126,0,0,0,.2-2.415,4.266,4.266,0,0,1,.105,2.468c-.105.761-.333,1.654-.446,2.625a4.764,4.764,0,0,0,.542,3.01,3.238,3.238,0,0,0,2.669,1.269,6.633,6.633,0,0,1,2.625.56,2.151,2.151,0,0,1,1.12,1.47.954.954,0,0,1-.088.674A3.465,3.465,0,0,0,703.243,217.75Z" transform="translate(-584.06 -195.016)"></path><path class="f" d="M704.5,213.93a2.392,2.392,0,0,0-1.654-1.05,3.553,3.553,0,0,1-1.277-.464,1.748,1.748,0,0,1-.647-1.374v-1.374a6.167,6.167,0,0,0-.149-1.234,6.731,6.731,0,0,0-.744-1.951,1.463,1.463,0,0,0-1.05-.779,1.149,1.149,0,0,0-.508,0c-.017-.009.14-.2.516-.2a1.6,1.6,0,0,1,1.3.779,6.6,6.6,0,0,1,1.068,3.343v1.365a1.31,1.31,0,0,0,.473,1.041,3.14,3.14,0,0,0,1.1.42,2.948,2.948,0,0,1,1.12.49,2.626,2.626,0,0,1,1.041,2.275,1.183,1.183,0,0,1-.166.525A3.109,3.109,0,0,0,704.5,213.93Z" transform="translate(-584.376 -194.915)"></path><path class="f" d="M667.888,200.2a3.421,3.421,0,0,0,.954-.962,4.724,4.724,0,0,1,1.33-1.348,4.5,4.5,0,0,1,2.223-.665,4.205,4.205,0,0,1,2.537.761c.788.516,1.453,1.216,2.24,1.75a3.272,3.272,0,0,0,1.286.551,2.616,2.616,0,0,0,1.409-.184c.962-.359,1.759-1.015,2.713-1.4a7.622,7.622,0,0,1,2.861-.569,7.352,7.352,0,0,1,4.6,1.54,7.456,7.456,0,0,1,2.1,2.529,5.5,5.5,0,0,1,.333.823c.07.2.105.289.07.306s-.175-.385-.56-1.05a7.825,7.825,0,0,0-2.126-2.354,7.163,7.163,0,0,0-4.419-1.383,7.279,7.279,0,0,0-2.7.569c-.884.35-1.689,1.006-2.713,1.409a3.2,3.2,0,0,1-1.645.21,3.78,3.78,0,0,1-1.461-.63c-.849-.542-1.5-1.251-2.223-1.75a4.045,4.045,0,0,0-4.375-.166,4.781,4.781,0,0,0-1.3,1.234,3.41,3.41,0,0,1-1.059.954,1.206,1.206,0,0,1-1.19.079A1.685,1.685,0,0,0,667.888,200.2Z" transform="translate(-580.415 -193.88)"></path><path class="s" d="M621.528,283.646a9.161,9.161,0,0,1-.285,12.953h0l-.11.1a9.161,9.161,0,0,1-12.945-.532l-25.043-27.221c-1.68-1.505-5.871-4.48-5.871-4.48l-1.794-1.418a2.6,2.6,0,0,0-.1.446,1.889,1.889,0,0,1-.28.822,1.364,1.364,0,0,1-1.531.21,3.272,3.272,0,0,1-.945-5.556,2.344,2.344,0,0,1,.3-.875c1.068-1.881,4.174-2.118,4.174-2.118l-.56-.586s-2.293-.98-5.443,1.75a2.551,2.551,0,0,1-1.706.639,1.285,1.285,0,0,1-1.015-.429c-.639-.788-.271-1.453,1.7-3.176s4.419-2.747,6.125-2.389a17.9,17.9,0,0,1,2.345.6s-4.716-5.574-5.005-5.941c-.823-1.05-1.041-2.31-.385-2.931.411-.394,1.234-.586,2.231.613.857,1.041,11.043,10.553,11.043,10.553l4.261,4.471,29.9,23.625A9.071,9.071,0,0,1,621.528,283.646Z" transform="translate(-568.079 -199.629)"></path><path class="s" d="M587.407,256.924l-7.726,1.479c-.3.052-.665.14-.735.464s.245.595.551.735c2.152,1.05,4.821.122,7,1.05.735.306,1.374.814,2.126,1.068a1.916,1.916,0,0,0,2.17-.464" transform="translate(-569.436 -201.342)"></path><path class="t" d="M586.533,257.168c-.516.131-1.3.3-2.266.508l-3.369.691-.971.193a1.641,1.641,0,0,0-.788.3c-.114.131.07.376.359.525a5.008,5.008,0,0,0,.989.341,34.721,34.721,0,0,0,4.165.306,5.894,5.894,0,0,1,1.837.446,14.758,14.758,0,0,1,1.418.779,2.665,2.665,0,0,0,2.117.411,2.521,2.521,0,0,0,.7-.411c.017-.009-.1.341-.648.577a2.77,2.77,0,0,1-2.319-.3,15.371,15.371,0,0,0-1.418-.718,5.856,5.856,0,0,0-1.75-.376,30.908,30.908,0,0,1-4.226-.28,5.562,5.562,0,0,1-1.094-.385,1.342,1.342,0,0,1-.49-.411.656.656,0,0,1,0-.744,1.577,1.577,0,0,1,1.085-.481l.971-.175,3.4-.6c.963-.166,1.741-.289,2.284-.368a3.16,3.16,0,0,1,.875-.07A3.654,3.654,0,0,1,586.533,257.168Z" transform="translate(-569.402 -201.342)"></path><path class="t" d="M576.977,257.268a2.392,2.392,0,0,0-.971-.613,2.628,2.628,0,0,0-1.75.044,6.535,6.535,0,0,0-1.75,1.068,11.074,11.074,0,0,1-1.645,1.172,3.164,3.164,0,0,1-1.531.429,1.23,1.23,0,0,1-.936-.429,3.676,3.676,0,0,1-.236-.333.732.732,0,0,0,.149.4,1.292,1.292,0,0,0,1.006.56,3.238,3.238,0,0,0,1.671-.394,10.043,10.043,0,0,0,1.7-1.181,6.614,6.614,0,0,1,1.7-1.041,2.528,2.528,0,0,1,1.566-.105,3.375,3.375,0,0,1,1.269.77C577.231,257.609,577.169,257.478,576.977,257.268Z" transform="translate(-568.088 -201.293)"></path><path class="t" d="M574.661,247.678c.525.735,1.277,1.724,2.152,2.774s1.7,1.969,2.319,2.625a6.718,6.718,0,0,0,1.059,1,9.181,9.181,0,0,0-.875-1.138l-2.249-2.677-2.205-2.713a8.161,8.161,0,0,0-.945-1.1A6.2,6.2,0,0,0,574.661,247.678Z" transform="translate(-568.808 -200.032)"></path><path class="t" d="M577.195,260.5a1.383,1.383,0,0,0-1.05.7.918.918,0,0,0,.079.919,3.881,3.881,0,0,0,.674.753,1.351,1.351,0,0,1,.5.823,1.093,1.093,0,0,1-.394.875,1.557,1.557,0,0,1-1.9-.07,6.65,6.65,0,0,1-1.164-1.365,4.148,4.148,0,0,1-.551-1.076,1.349,1.349,0,0,1-.1-.437,1.065,1.065,0,0,0,0,.464,3.934,3.934,0,0,0,.49,1.164,6.4,6.4,0,0,0,1.173,1.453,1.95,1.95,0,0,0,1.068.438,1.556,1.556,0,0,0,1.19-.35,1.409,1.409,0,0,0,.49-1.155,1.665,1.665,0,0,0-.6-1,4.229,4.229,0,0,1-.656-.674.734.734,0,0,1-.1-.709,1.366,1.366,0,0,1,.875-.683,2.05,2.05,0,0,0,.429-.14A1.19,1.19,0,0,0,577.195,260.5Z" transform="translate(-568.726 -201.781)"></path><path class="t" d="M575.892,265.39a1.21,1.21,0,0,1-.228.971,1.5,1.5,0,0,1-1.347.5,2.566,2.566,0,0,1-1.592-.945,3.149,3.149,0,0,1-.473-3.264,5.083,5.083,0,0,1,.831-1.207c-.009-.017-.14.052-.341.228a3.193,3.193,0,0,0-1.006,2.538,3.372,3.372,0,0,0,.77,1.9,2.754,2.754,0,0,0,1.75,1.015,1.688,1.688,0,0,0,1.549-.639,1.287,1.287,0,0,0,.175-1.12.643.643,0,0,0-.236-.341C575.726,265.031,575.814,265.154,575.892,265.39Z" transform="translate(-568.535 -201.907)"></path><path class="t" d="M584.911,265.16a2.912,2.912,0,0,1,1.636-.149l.315.07-.175-.28c-.158-.254-.324-.534-.473-.831a15.743,15.743,0,0,1-1.05-3.176,6.12,6.12,0,0,0,.788,3.308,9.286,9.286,0,0,0,.5.875l.149-.21a2.8,2.8,0,0,0-1.75.262,1.6,1.6,0,0,0-.542.446C584.333,265.528,584.535,265.344,584.911,265.16Z" transform="translate(-570.107 -201.826)"></path><path class="t" d="M574.568,256.374a9.091,9.091,0,0,1-.621.936c0,.07.551-.184.875-.8s.2-1.181.122-1.181S574.84,255.823,574.568,256.374Z" transform="translate(-568.812 -201.142)"></path><path class="j" d="M613.2,299.892l-13.125-13.248,11.541-16.03,7.648,6.186,23.328-18.909,18.725-3.08,3.868-4.2-.114,4.191,4.086,11.113L685.136,248.7l2.625,6.125,15.426,6.563-6.764,45.045-2.179,36.873c-19.171,7.061-38.01,4.235-57.024-.14l-.875-4.664a4.275,4.275,0,0,1,2.625-4.559c0-.429,1.514-46.717,1.514-46.717l-17.264,11.953A15.311,15.311,0,0,1,613.2,299.892Z" transform="translate(-572.078 -200.315)"></path><path class="g" d="M675.142,265a2.173,2.173,0,0,0-.875,1,4.819,4.819,0,0,0-.464,2,7.4,7.4,0,0,1-.4,2.441h.385a27.5,27.5,0,0,1-1.164-3.946c-.656-2.818-1.129-5.4-1.488-7.263a24.379,24.379,0,0,0-.647-3.01,18.555,18.555,0,0,0,.324,3.063c.289,1.881.709,4.48,1.365,7.315A25.3,25.3,0,0,0,673.4,270.6l.192.455.193-.455a7.111,7.111,0,0,0,.368-2.625,4.922,4.922,0,0,1,.341-1.908,2.623,2.623,0,0,1,1.12-1.251C675.606,264.8,675.44,264.807,675.142,265Z" transform="translate(-580.879 -201.254)"></path><path class="g" d="M696.721,258.8c-.4.438-.98,1.076-1.68,1.872-1.409,1.593-3.325,3.806-5.425,6.274l-3.3,3.929.35.087c-.508-1.9-.954-3.483-1.278-4.6a1.762,1.762,0,0,0-.385-.726.807.807,0,0,0-.577-.236c-.359.026-.42.254-.42.254a.667.667,0,0,1,.42-.122c.306,0,.621.315.726.875.245,1.138.639,2.739,1.12,4.638l.1.385.254-.3,3.343-3.9c2.1-2.467,3.973-4.716,5.32-6.361.7-.823,1.208-1.5,1.575-1.969a3.511,3.511,0,0,0,.525-.761A3.884,3.884,0,0,0,696.721,258.8Z" transform="translate(-582.569 -201.494)"></path><path class="g" d="M673,332.109q.052-.638.052-1.68c.035-1.514.079-3.614.14-6.186.166-5.224.446-12.425,1.041-20.379s1.374-15.129,2-20.318c.324-2.538.586-4.62.779-6.125.079-.682.149-1.242.2-1.671a2.26,2.26,0,0,0,0-.586q-.08.286-.131.577l-.28,1.654c-.245,1.444-.56,3.5-.919,6.125-.718,5.18-1.575,12.373-2.144,20.326s-.814,15.155-.875,20.405v7.875a2.473,2.473,0,0,0,.044.6A4.664,4.664,0,0,0,673,332.109Z" transform="translate(-581.176 -203.622)"></path><path class="g" d="M667.854,348.1a20.381,20.381,0,0,0,0-3.894,14.137,14.137,0,0,0-.4,3.885,10.163,10.163,0,0,0,.4,3.885C667.941,351.957,667.8,350.233,667.854,348.1Z" transform="translate(-580.494 -212.252)"></path><path class="g" d="M686.517,338.928,682.6,340c-3.307.875-7.919,2.039-13.064,2.914s-9.853,1.435-13.256,1.75l-4.051.341a9.115,9.115,0,0,0-1.479.166,8.8,8.8,0,0,0,1.487,0c.963-.018,2.319-.087,4.069-.2a130.577,130.577,0,0,0,13.309-1.654,127.908,127.908,0,0,0,13.073-3.036c1.645-.481,3.01-.9,3.885-1.216a8.412,8.412,0,0,0,1.391-.525A10.966,10.966,0,0,0,686.517,338.928Z" transform="translate(-578.412 -211.543)"></path><path class="g" d="M646.451,286.37c.026-7.936-.053-14.376-.175-14.376s-.254,6.44-.28,14.376.053,14.376.175,14.376S646.425,294.307,646.451,286.37Z" transform="translate(-577.817 -203.226)"></path><g class="u" transform="translate(98.533 63.99)"><path d="M680.687,269.605a10.846,10.846,0,0,0,1.514-1.628c.438-.586,1.313-1.549,1.969-1.242.4.184.595.9.753,1.321a15.762,15.762,0,0,1,1.085,4.043s4.847-5.5,4.847-5.565a32.5,32.5,0,0,1-4.375,8.129,2.481,2.481,0,0,1-1.339,1.059c-.936.192-1.785-.709-2.03-1.636s-.114-1.916-.289-2.853a2.1,2.1,0,0,0-2.1-1.54" transform="translate(-680.687 -266.534)"></path></g><g class="u" transform="translate(90.667 62.074)"><path d="M671.706,264.344c.56,2.109,1.225,4.961,2.1,7.359.333-.788.3-1.82.569-4.06a1.865,1.865,0,0,1,1.243-1.426,1.146,1.146,0,0,1,1.129.726,32.621,32.621,0,0,1,1.19,4.165s-1.82.114-2.266,1.365a10.375,10.375,0,0,1-.875,1.864.725.725,0,0,1-.875-.131,1.915,1.915,0,0,1-.472-.779,28.119,28.119,0,0,1-1.75-9" transform="translate(-671.697 -264.344)"></path></g><g class="u" transform="translate(75.608 124.677)"><path d="M654.487,344.958a8.643,8.643,0,0,1,6.125-3.973,44.159,44.159,0,0,1,7.534-.332,14.2,14.2,0,0,0,7.271-1.663c.875-.534,1.636-1.216,2.468-1.82a6.131,6.131,0,0,1,2.765-1.243,2.923,2.923,0,0,1,2.739,1.033l.022.031a1.916,1.916,0,0,1-.442,2.673C675.995,343.383,654.478,344.915,654.487,344.958Z" transform="translate(-654.487 -335.889)"></path></g><path class="j" d="M711.4,270.878c-.157.473-1.444,20.405-1.444,20.405l3.5,18.769c-1.575,1.173-.919,2.144-.919,2.144l-10.964-.411-.665,14.429s20.309,1.654,23.625.578c8.916-2.914,8.881-10.579,7.683-16.774-.945-4.926-6.764-33.775-8.339-37.975s-8.085-8.838-8.085-8.838S711.556,270.405,711.4,270.878Z" transform="translate(-584.681 -202.127)"></path><path class="g" d="M715.375,264.378a12.111,12.111,0,0,0-6.125,6.4,4.9,4.9,0,0,0-.473,1.75,14.874,14.874,0,0,1,8.348-8.75A5.183,5.183,0,0,0,715.375,264.378Z" transform="translate(-585.665 -202.199)"></path><path class="g" d="M720.986,320.524a6.593,6.593,0,0,0-2.258-2.4,6.456,6.456,0,0,0-3.115-1.076,2.251,2.251,0,0,0-1.356.219c.017.1.525-.017,1.321.1a7.337,7.337,0,0,1,2.9,1.146,7.481,7.481,0,0,1,2.231,2.179c.438.674.586,1.155.656,1.155A2.379,2.379,0,0,0,720.986,320.524Z" transform="translate(-586.35 -208.855)"></path><path class="g" d="M709.048,283.454c.131.849.306,1.925.516,3.22.464,2.721,1.137,6.466,1.9,10.6s1.479,7.866,2.021,10.57c.271,1.278.49,2.319.665,3.194a7.029,7.029,0,0,0,.306,1.155,5.674,5.674,0,0,0-.131-1.19c-.131-.849-.306-1.925-.516-3.22-.464-2.721-1.138-6.466-1.9-10.6s-1.479-7.866-2.021-10.57c-.271-1.278-.49-2.319-.674-3.194a6.752,6.752,0,0,0-.3-1.155A5.661,5.661,0,0,0,709.048,283.454Z" transform="translate(-585.683 -204.51)"></path><path class="g" d="M701.071,331.989c.052-.8.122-1.82.21-3.054.158-2.581.35-6.2.534-10.255l-.228.21,1.8.079,9.152.315-.114-.044a9.958,9.958,0,0,1,3.036,4.007c.464,1.138.569,1.829.621,1.829a1.6,1.6,0,0,0-.044-.508,9.486,9.486,0,0,0-.376-1.4,9.747,9.747,0,0,0-3-4.218l-.044-.044h-.061l-9.153-.394-1.8-.07h-.227v.219c-.184,4.069-.315,7.648-.394,10.273-.07,1.234-.07,2.258-.07,3.054a6.13,6.13,0,0,0,0,1.12A5.1,5.1,0,0,0,701.071,331.989Z" transform="translate(-584.679 -209.032)"></path><path class="f" d="M682.542,323.027H660.413a2.342,2.342,0,0,1-2.056-1.225l-14.438-26.968a1.042,1.042,0,0,1,.919-1.54H666.2a3.431,3.431,0,0,1,3.08,1.916l8.479,17.308Z" transform="translate(-577.542 -205.888)"></path><path class="g" d="M644.482,294.984l1.225-.052,4.489-.122c3.841-.079,9.065-.245,14.875-.245a4.535,4.535,0,0,1,2.152.534,4.047,4.047,0,0,1,1.453,1.6c.639,1.234,1.138,2.432,1.671,3.579,1.006,2.266,2,4.366,2.756,6.064s1.374,3.089,1.82,4.113c.192.455.359.823.481,1.12a1.559,1.559,0,0,1,.14.4,1.678,1.678,0,0,1-.21-.367c-.149-.289-.333-.648-.551-1.094l-1.934-4.051-2.835-6.038c-.542-1.085-1.059-2.319-1.68-3.5a3.7,3.7,0,0,0-1.312-1.453,4.2,4.2,0,0,0-1.969-.473l-14.814.122H644.1A1.373,1.373,0,0,1,644.482,294.984Z" transform="translate(-577.581 -206.047)"></path><path class="e" d="M659.805,299.471a.972.972,0,0,1,.647.98.778.778,0,0,1-.586.569,1.015,1.015,0,0,1-1.129-.429.676.676,0,0,1-.09-.168.7.7,0,0,1,.414-.9A1.553,1.553,0,0,1,659.805,299.471Z" transform="translate(-579.394 -206.658)"></path><path class="s" d="M696.722,328.69l-8.663-1.321a24.966,24.966,0,0,1-5.932-.35s-6.405-2.38-7.052-3.054a6.213,6.213,0,0,1-.927-2.5,6.619,6.619,0,0,0-1.5-.928c-1.4-.77-1.2-2.765-1.2-2.765l2.1.28a51.088,51.088,0,0,1-5.863-1c-.534-.184-.464-.6-.227-.989a2.286,2.286,0,0,1,1.645-1.041L679.79,313.5a22.856,22.856,0,0,1-1.855-4.235,1.275,1.275,0,0,1,1.024-1.881c.367-.044,3.176,2.94,3.176,2.94a65.3,65.3,0,0,1,6.353,3.5c.945.823,3.351,3.552,3.351,3.552l5.3.516Z" transform="translate(-580.479 -207.65)"></path><path class="t" d="M683.442,314.15a13.126,13.126,0,0,1,3.054.166,11.472,11.472,0,0,1-3.045.219,21.952,21.952,0,0,1-3.054,0A8.587,8.587,0,0,1,683.442,314.15Z" transform="translate(-582.118 -208.492)"></path><path class="t" d="M676.916,319.72c-1.242-.009-2.362-.035-3.185-.1a3.484,3.484,0,0,1-1.3-.21,6.041,6.041,0,0,1,1.313-.052h3.176a16.3,16.3,0,0,1,4.489.4C681.387,319.86,679.392,319.729,676.916,319.72Z" transform="translate(-581.122 -209.144)"></path><path class="t" d="M678.667,324.087a9.656,9.656,0,0,1-3.5-.656c0-.114,1.575.192,3.5.271s3.5-.035,3.5.079A9.359,9.359,0,0,1,678.667,324.087Z" transform="translate(-581.464 -209.652)"></path><path class="t" d="M682.8,327.124c.026-.543.131-.989.236-.98s.175.446.149,1-.131.98-.236.98S682.77,327.667,682.8,327.124Z" transform="translate(-582.417 -209.994)"></path><path class="t" d="M683.3,321.79c.166-.5.56-.726.63-.639s-.131.367-.271.761-.157.77-.262.77C683.3,322.709,683.131,322.289,683.3,321.79Z" transform="translate(-582.471 -209.368)"></path><path class="t" d="M684.078,316.558c.123-.341.385-.516.464-.446s-.009.306-.105.577-.175.508-.289.508S683.956,316.9,684.078,316.558Z" transform="translate(-582.571 -208.739)"></path></g><g transform="translate(144.563 308.648)"><path class="j" d="M181.918,473.776c-12.422-6.725-26.4-18.949-31.835-32.837a74.167,74.167,0,0,1,31.835,32.837" transform="translate(-147.416 -349.11)"></path><path class="j" d="M180.99,450c-12.422-6.717-26.4-18.949-31.835-32.837A73.906,73.906,0,0,1,180.99,450" transform="translate(-147.3 -346.138)"></path><path class="j" d="M178.87,426.726c-12.422-6.717-26.4-18.949-31.835-32.838a74.09,74.09,0,0,1,31.835,32.838" transform="translate(-147.035 -343.229)"></path><path class="j" d="M176.368,401.681c-11.536-8.406-23.943-22.485-27.686-37.02a76.369,76.369,0,0,1,27.686,37.02" transform="translate(-147.241 -339.575)"></path><path class="j" d="M174.422,381.591c-7.8-12.489-14.46-30.593-12.937-45.6a82.116,82.116,0,0,1,12.937,45.6" transform="translate(-148.814 -335.992)"></path><path class="j" d="M178.326,390.554c3.313-15.57,11.28-34.784,22.792-45.609a96.582,96.582,0,0,1-22.792,45.609" transform="translate(-150.946 -337.111)"></path><path class="j" d="M181.27,410.7c4.7-15.926,14.609-35.248,27.487-45.55A100.213,100.213,0,0,1,181.27,410.7" transform="translate(-151.314 -339.637)"></path><path class="j" d="M184.478,435.227c4.7-15.935,14.609-35.248,27.487-45.55a100.314,100.314,0,0,1-27.487,45.55" transform="translate(-151.715 -342.702)"></path><path class="j" d="M186.106,465.107c4.7-15.934,14.609-35.247,27.487-45.55a100.309,100.309,0,0,1-27.487,45.55" transform="translate(-151.919 -346.437)"></path><path class="g" d="M175.95,384.509a1.306,1.306,0,0,1,.075.256c.049.2.108.447.173.745.158.7.365,1.656.638,2.9.547,2.484,1.267,6.162,2.079,10.692s1.656,9.938,2.543,15.95,1.656,12.663,2.269,19.654,1.06,13.665,1.35,19.735.4,11.554.405,16.159,0,8.281-.091,10.89c0,1.25-.066,2.236-.091,2.957v.77a.967.967,0,0,1,0,.256,1.046,1.046,0,0,1,0-.256v-3.735c0-2.567,0-6.285-.066-10.882s-.232-10.063-.522-16.133-.753-12.73-1.383-19.719-1.433-13.607-2.228-19.628-1.656-11.429-2.435-15.959-1.433-8.191-1.922-10.716c-.224-1.235-.406-2.2-.538-2.908l-.124-.761A1.06,1.06,0,0,1,175.95,384.509Z" transform="translate(-150.649 -342.056)"></path><g class="v" transform="translate(0)"><path d="M181.918,473.776c-12.422-6.725-26.4-18.949-31.835-32.837a74.167,74.167,0,0,1,31.835,32.837" transform="translate(-147.416 -349.11)"></path><path d="M180.99,450c-12.422-6.717-26.4-18.949-31.835-32.837A73.906,73.906,0,0,1,180.99,450" transform="translate(-147.3 -346.138)"></path><path d="M178.87,426.726c-12.422-6.717-26.4-18.949-31.835-32.838a74.09,74.09,0,0,1,31.835,32.838" transform="translate(-147.035 -343.229)"></path><path d="M176.368,401.681c-11.536-8.406-23.943-22.485-27.686-37.02a76.369,76.369,0,0,1,27.686,37.02" transform="translate(-147.241 -339.575)"></path><path d="M174.422,381.591c-7.8-12.489-14.46-30.593-12.937-45.6a82.116,82.116,0,0,1,12.937,45.6" transform="translate(-148.814 -335.992)"></path><path d="M178.326,390.554c3.313-15.57,11.28-34.784,22.792-45.609a96.582,96.582,0,0,1-22.792,45.609" transform="translate(-150.946 -337.111)"></path><path d="M181.27,410.7c4.7-15.926,14.609-35.248,27.487-45.55A100.213,100.213,0,0,1,181.27,410.7" transform="translate(-151.314 -339.637)"></path><path d="M184.478,435.227c4.7-15.935,14.609-35.248,27.487-45.55a100.314,100.314,0,0,1-27.487,45.55" transform="translate(-151.715 -342.702)"></path><path d="M186.106,465.107c4.7-15.934,14.609-35.247,27.487-45.55a100.309,100.309,0,0,1-27.487,45.55" transform="translate(-151.919 -346.437)"></path></g><path class="j" d="M191.551,478.585c-5.8-12.117-10-29.153-7.155-42.445a75.244,75.244,0,0,1,7.155,42.445" transform="translate(-151.591 -348.51)"></path><path class="j" d="M202.55,460.657c-5.8-12.116-10-29.153-7.156-42.453a75.293,75.293,0,0,1,7.156,42.453" transform="translate(-152.966 -346.268)"></path><path class="j" d="M212.412,442.428c-5.8-12.117-10-29.153-7.156-42.454a75.268,75.268,0,0,1,7.156,42.454" transform="translate(-154.199 -343.989)"></path><path class="j" d="M222.644,422.671c-4.306-12.82-6.459-30.3-2.07-43.065a75.68,75.68,0,0,1,2.07,43.065" transform="translate(-155.926 -341.443)"></path><path class="j" d="M229.607,406.9c.423-13.64,4.439-30.735,12.912-40.805A73.968,73.968,0,0,1,229.607,406.9" transform="translate(-157.356 -339.754)"></path><path class="j" d="M226.7,417.585c10.038-9.466,25.293-18.874,39.008-20.1a75.553,75.553,0,0,1-39.008,20.1" transform="translate(-156.993 -343.678)"></path><path class="j" d="M218.949,434.349c11.247-8.911,27.952-17.276,42.395-17.309a78.672,78.672,0,0,1-42.395,17.309" transform="translate(-156.024 -346.123)"></path><path class="j" d="M209.286,454.168c11.246-8.911,27.951-17.276,42.395-17.309a78.678,78.678,0,0,1-42.395,17.309" transform="translate(-154.816 -348.6)"></path><path class="j" d="M195.817,476.941c11.247-8.911,27.96-17.275,42.4-17.309a78.737,78.737,0,0,1-42.4,17.309" transform="translate(-153.132 -351.446)"></path><path class="g" d="M225.009,409.894a.9.9,0,0,1-.066.232c-.066.165-.141.381-.232.637l-.944,2.485c-.828,2.128-2.07,5.184-3.677,8.936-3.214,7.5-7.968,17.731-13.872,28.7-2.965,5.483-5.93,10.617-8.712,15.247s-5.4,8.68-7.661,12.051-4.141,6.12-5.466,7.976l-1.532,2.128-.414.547a1.081,1.081,0,0,1-.15.173.385.385,0,0,1,.108-.206l.373-.571c.356-.538.829-1.267,1.458-2.187,1.284-1.88,3.106-4.63,5.317-8.05s4.795-7.544,7.57-12.157,5.7-9.773,8.663-15.247c5.9-10.949,10.7-21.144,13.988-28.6,1.656-3.727,2.949-6.758,3.826-8.87l1.027-2.41.281-.629A.827.827,0,0,1,225.009,409.894Z" transform="translate(-151.441 -345.229)"></path><path class="g" d="M205.526,535.984H169.989l-6.617-48.971h48.962Z" transform="translate(-149.077 -354.869)"></path><path class="f" d="M210.78,495.179c0,.124-10.278.215-22.957.215s-22.966-.091-22.966-.215,10.287-.215,22.966-.215S210.78,495.064,210.78,495.179Z" transform="translate(-149.263 -355.863)"></path></g><g transform="translate(259.867 381.627)"><rect class="j" width="70.899" height="50.974" transform="translate(12.917 0)"></rect><path class="g" d="M314.54,419.4c.1,0,0,10.765,0,10.765h-5.261V419.4Z" transform="translate(-282.619 -419.397)"></path><g class="w" transform="translate(48.364)"><rect width="35.452" height="50.974"></rect></g><rect class="b" width="9.492" height="6.719" transform="translate(15.074 40.993)"></rect><path class="g" d="M305.546,472.973h-9.5v-6.74h9.518Zm-9.47-.026h9.47v-6.688h-9.5Z" transform="translate(-280.965 -425.251)"></path><rect class="b" width="4.746" height="6.719" transform="translate(26.318 40.993)"></rect><path class="g" d="M313.648,472.973h-4.772v-6.74h4.772Zm-4.736-.026h4.736v-6.688h-4.736Z" transform="translate(-282.568 -425.251)"></path><rect class="j" width="80.654" height="57.982" transform="translate(0 51.016)"></rect><path class="g" d="M302.683,477.7c.11,0,0,12.239,0,12.239h-5.972V477.7Z" transform="translate(-281.048 -426.684)"></path><g class="w" transform="translate(40.33 51.011)"><rect width="40.324" height="57.982"></rect></g><rect class="b" width="10.797" height="7.64" transform="translate(2.457 97.643)"></rect><path class="g" d="M292.43,538.643H281.618v-7.667h10.823Zm-10.812-.027H292.4V531H281.618Z" transform="translate(-279.161 -433.343)"></path><rect class="b" width="5.398" height="7.64" transform="translate(15.248 97.643)"></rect><path class="g" d="M301.649,538.643h-5.425v-7.667h5.425Zm-5.4-.027h5.373V531H296.25Z" transform="translate(-280.987 -433.343)"></path><path class="g" d="M364.471,477.633c0,.073-15.873.137-35.452.137s-35.447-.063-35.447-.137,15.869-.137,35.447-.137S364.471,477.559,364.471,477.633Z" transform="translate(-280.655 -426.659)"></path></g></g></svg>